<?xml version="1.0" encoding="UTF-8" standalone="no"?>
<!-- Created with Inkscape (http://www.inkscape.org/) -->

<svg
   version="1.1"
   id="svg1"
   width="587.69861"
   height="712.99615"
   viewBox="0 0 587.69862 712.99618"
   sodipodi:docname="escudo_vetor_borda.svg"
   inkscape:version="1.4.2 (ebf0e940, 2025-05-08)"
   inkscape:export-filename="../velho.svg"
   inkscape:export-xdpi="96"
   inkscape:export-ydpi="96"
   xmlns:inkscape="http://www.inkscape.org/namespaces/inkscape"
   xmlns:sodipodi="http://sodipodi.sourceforge.net/DTD/sodipodi-0.dtd"
   xmlns="http://www.w3.org/2000/svg"
   xmlns:svg="http://www.w3.org/2000/svg">
  <defs
     id="defs1">
    <clipPath
       clipPathUnits="userSpaceOnUse"
       id="clipPath134">
      <path
         d="m 337.153,585.652 c -1.509,-1.438 -2.435,-2.849 -3.051,-4.833 v 0 c -0.456,-1.467 -0.63,-2.41 -1.513,-3.735 v 0 c -1.688,-2.537 -2.77,-5.67 -4.056,-8.44 v 0 c -0.862,-1.858 -1.597,-3.694 -1.11,-5.766 v 0 c 0.098,-0.414 0.221,-0.732 0.223,-1.162 v 0 c 0.002,-1.021 -0.384,-2.392 -0.67,-3.359 v 0 c -0.509,-1.722 -0.897,-3.524 -1.104,-5.346 v 0 l -0.009,0.005 c -2.499,1.393 -5.589,1.014 -8.042,-0.278 v 0 c -2.656,-1.399 -4.662,-3.852 -5.369,-6.784 v 0 c -0.472,-1.958 -0.404,-3.535 0.158,-5.45 v 0 c 0.248,-0.851 0.522,-1.594 0.545,-2.494 v 0 c 0.023,-0.922 -0.151,-1.692 -0.399,-2.57 v 0 c -0.415,-1.466 -0.773,-2.724 -0.874,-4.267 v 0 c -0.142,-2.159 0.166,-3.665 0.616,-5.724 v 0 c 0.139,-0.637 0.248,-1.248 0.25,-1.903 v 0 c 0.001,-0.429 -0.129,-0.799 -0.234,-1.21 v 0 c -0.273,-1.096 -0.3,-2.059 -0.071,-3.169 v 0 c 0.833,-4.021 3.907,-8.209 8.095,-9.103 v 0 c 0.744,-0.159 3.267,-0.281 4.286,-0.57 v 0 c 0.07,-0.769 0.057,-1.716 0.055,-2.297 v 0 c -0.007,-1.806 -0.091,-3.623 -0.187,-5.426 v 0 c -0.153,-2.921 -0.424,-5.919 -0.463,-8.835 v 0 c -0.016,-1.247 0.216,-2.475 0.461,-3.692 v 0 c 0.148,-0.737 0.558,-2.522 0.296,-3.238 v 0 c -0.239,-0.65 -0.367,-1.316 -0.443,-1.988 v 0 c -1.679,1.746 -3.566,3.033 -5.843,4.132 v 0 c -0.952,0.46 -3.172,1.312 -3.874,2.042 v 0 c -0.049,0.051 -0.097,0.106 -0.137,0.164 v 0 c -3.069,4.272 -5.337,5.03 -10.408,5.522 v 0 c -0.334,0.033 -1.309,0.087 -1.642,0.199 v 0 c -0.116,0.105 -0.28,0.346 -0.356,0.459 v 0 c -0.095,0.142 -0.219,0.317 -0.34,0.501 v 0 c 0.363,0.834 0.464,1.708 0.42,2.768 v 0 c -0.044,1.098 -0.674,2.023 -1.652,2.464 v 0 l 0.006,0.555 c 0.011,0.98 -0.434,1.828 -1.247,2.378 v 0 c -0.735,0.499 -1.406,0.802 -2.174,0.911 v 0 c -0.237,0.342 -0.487,0.756 -0.698,1.115 v 0 c 0.591,0.209 1.1,0.619 1.453,1.193 v 0 c 0.276,0.45 0.456,0.794 0.575,1.097 v 0 c 0.388,0.14 0.755,0.335 1.14,0.56 v 0 c 1.118,0.657 1.64,1.936 1.3,3.188 v 0 c -0.82,3.019 -2.753,4.625 -5.209,6.067 v 0 c 0.036,0.139 0.065,0.28 0.086,0.427 v 0 c 0.259,1.816 -0.766,3.201 -2.152,4.221 v 0 c -0.255,0.187 -0.505,0.356 -0.756,0.507 v 0 c 0.199,0.461 0.344,0.951 0.453,1.451 v 0 c 0.303,1.405 -0.478,2.798 -1.834,3.274 v 0 l -1.231,0.431 c -0.166,0.057 -0.313,0.095 -0.484,0.122 v 0 c -0.446,0.783 -1.078,1.388 -1.74,2.002 v 0 c -0.51,0.473 -1.096,0.72 -1.791,0.754 v 0 c -1.44,0.069 -2.641,0.008 -3.751,-0.818 v 0 c -0.006,0 -0.012,0 -0.017,0 v 0 c -0.917,-0.024 -2.27,-0.14 -3.176,-0.043 v 0 c -0.042,0.011 -0.084,0.022 -0.128,0.032 v 0 c -0.213,0.05 -0.475,0.187 -0.67,0.283 v 0 c -0.593,0.288 -1.144,0.537 -1.795,0.674 v 0 c -1.088,0.228 -2.159,0.078 -3.157,-0.405 v 0 c -1.121,-0.543 -1.72,-1.026 -2.663,-1.768 v 0 c -0.495,-0.389 -2.27,-0.584 -2.847,-0.655 v 0 c -1.23,-0.153 -2.256,-0.431 -3.256,-1.193 v 0 c -0.227,-0.174 -0.376,-0.323 -0.638,-0.44 v 0 c -0.905,-0.408 -1.936,-0.614 -2.885,-0.91 v 0 c -1.629,-0.509 -2.965,-1.222 -4.19,-2.433 v 0 c -0.706,-0.699 -1.27,-1.536 -1.859,-2.337 v 0 c -0.371,0.429 -0.824,0.791 -1.36,1.113 v 0 c -2.482,1.487 -6.048,1.07 -7.403,-1.743 v 0 c -0.32,-0.664 -0.375,-1.367 -0.168,-2.037 v 0 c -0.02,-0.02 -0.039,-0.041 -0.059,-0.061 v 0 c -0.54,-0.575 -0.798,-1.263 -0.767,-2.051 v 0 c 0.046,-1.198 0.516,-2.288 0.945,-3.385 v 0 c 0.04,-0.103 0.102,-0.256 0.164,-0.423 v 0 c -3.077,-0.341 -7.463,-0.697 -8.895,-3.907 v 0 c -0.364,-0.82 -0.461,-1.711 -0.307,-2.593 v 0 c 0.135,-0.774 0.529,-1.392 1.174,-1.841 v 0 c 0.678,-0.471 1.398,-0.784 2.157,-0.896 v 0 c -0.523,-0.567 -0.959,-1.181 -1.24,-1.981 v 0 c -0.278,-0.792 -0.336,-1.63 -0.176,-2.453 v 0 c 0.076,-0.386 0.216,-0.735 0.418,-1.039 v 0 c -0.42,-0.472 -0.73,-1.045 -0.878,-1.7 v 0 c -0.425,-1.883 0.63,-3.518 2.205,-4.427 v 0 c 0.145,-0.502 0.389,-0.987 0.711,-1.47 v 0 c 0.709,-1.058 1.646,-1.83 2.966,-1.93 v 0 c 0.322,-0.024 0.561,0 0.816,0.038 v 0 c 0.18,-0.391 0.33,-0.76 0.644,-1.2 v 0 c 0.579,-0.808 1.172,-1.394 1.982,-1.723 v 0 c 0.139,-0.545 0.275,-1.1 0.403,-1.648 v 0 c -0.473,-0.512 -1.065,-1.008 -1.491,-1.408 v 0 c -0.385,-0.362 -0.758,-0.734 -1.108,-1.132 v 0 c -0.619,-0.707 -1.137,-1.475 -1.514,-2.337 v 0 c -0.519,-1.187 -0.686,-2.317 -0.408,-3.588 v 0 c 0.144,-0.659 0.331,-0.92 0.21,-1.593 v 0 c -0.402,-2.229 -0.815,-3.58 0.041,-5.875 v 0 c 0.297,-0.795 0.864,-1.364 1.659,-1.663 v 0 c 0.672,-0.252 1.362,-0.407 2.037,-0.401 v 0 c -0.006,-0.06 -0.012,-0.118 -0.017,-0.177 v 0 c -0.515,-0.251 -0.95,-0.597 -1.384,-1.015 v 0 c -0.775,-0.749 -1.054,-1.792 -0.754,-2.828 v 0 c 0.144,-0.496 0.309,-0.93 0.513,-1.311 v 0 c -0.093,-0.097 -0.187,-0.203 -0.282,-0.317 v 0 c -0.494,-0.594 -0.71,-1.28 -0.645,-2.05 v 0 c 0.053,-0.634 0.163,-1.23 0.365,-1.762 v 0 c -0.148,-0.114 -0.303,-0.248 -0.475,-0.417 v 0 c -0.564,-0.554 -0.87,-0.993 -1.195,-1.642 v 0 c -0.037,-0.026 -0.075,-0.051 -0.109,-0.075 v 0 c -0.622,-0.42 -1.012,-0.993 -1.177,-1.726 v 0 c -0.085,-0.376 -0.174,-0.424 -0.381,-0.762 v 0 c -0.829,-1.354 -0.838,-2.732 -0.672,-4.264 v 0 c 0.124,-1.154 0.893,-2.074 1.988,-2.405 v 0 c -0.046,-0.476 -0.049,-0.922 -0.325,-1.347 v 0 c -0.328,-0.503 -2.81,-0.623 -3.35,-0.633 v 0 c -0.655,-0.013 -1.313,0.002 -1.97,0.019 v 0 c -0.824,0.018 -1.648,0.038 -2.465,0.003 v 0 c -3.325,-0.144 -6.647,-0.082 -9.968,-0.02 v 0 c -2.569,0.049 -5.137,0.097 -7.706,0.05 v 0 c -1.414,-0.026 -2.952,0.25 -4.35,0.462 v 0 c -2.18,0.331 -4.303,0.597 -6.512,0.647 v 0 c -0.551,0.011 -1.404,0.011 -1.938,0.194 v 0 c -0.806,0.277 -1.497,0.547 -2.34,0.762 v 0 c -1.314,0.336 -2.489,0.471 -3.813,0.1 v 0 c -0.613,-0.171 -0.95,-0.331 -1.604,-0.375 v 0 c -1.607,-0.106 -3.677,0.246 -5.249,0.528 v 0 c -1.684,0.301 -3.367,0.639 -5.056,0.9 v 0 c -1.914,0.295 -3.807,0.45 -5.743,0.53 v 0 c -1.802,0.075 -3.608,0.08 -5.41,0.13 v 0 c -1.825,0.05 -3.855,0.111 -5.646,0.459 v 0 c -1.7,0.33 -3.389,0.741 -5.094,1.041 v 0 c -1.998,0.354 -3.919,0.493 -5.949,0.46 v 0 c -1.923,-0.031 -3.845,-0.038 -5.768,-0.039 v 0 c -1.342,-10e-4 -2.476,-0.11 -3.771,-0.46 v 0 c -0.619,-0.168 -1.147,-0.306 -1.79,-0.385 v 0 c -0.791,-0.098 -1.632,-0.073 -2.47,-0.047 v 0 c -0.556,0.018 -1.109,0.035 -1.645,0.016 v 0 c -0.562,-0.021 -1.123,-0.07 -1.678,-0.164 v 0 c -0.857,-0.145 -1.663,-0.338 -2.507,-0.527 v 0 c -0.805,-0.18 -1.587,-0.236 -2.412,-0.272 v 0 c -4.686,-0.207 -9.176,-3.946 -8.887,-8.912 v 0 c 0.197,-3.398 2.547,-5.51 4.772,-7.761 v 0 c 0.728,-0.737 1.605,-1.648 2.044,-2.596 v 0 c 0.605,-1.309 0.169,-2.58 -0.479,-3.787 v 0 c -0.86,-1.601 -0.913,-3.238 -1.509,-4.846 v 0 c -0.37,-0.998 -0.828,-1.854 -0.981,-2.933 v 0 c -0.221,-1.555 0.261,-2.92 1.023,-4.252 v 0 c 0.296,-0.517 0.622,-1.001 0.988,-1.471 v 0 c 0.111,-0.142 0.266,-0.314 0.369,-0.465 v 0 c 0.08,-0.289 0.092,-0.895 0.1,-1.166 v 0 c 0.058,-1.934 0.212,-3.865 0.243,-5.8 v 0 c 0.032,-2.069 0.611,-3.994 2.383,-5.226 v 0 c 1.007,-0.702 1.915,-0.861 3.008,-1.266 v 0 c 0.534,-0.197 0.872,-0.401 1.201,-0.878 v 0 c 1.232,-1.793 2.648,-3.908 4.885,-4.473 v 0 c 1.01,-0.254 1.943,-0.16 2.955,-0.028 v 0 c 0.994,0.127 1.937,0.23 2.942,0.248 v 0 c 1.674,0.03 2.857,-0.294 4.419,-0.815 v 0 c 1.832,-0.609 3.393,-1.053 5.347,-1.164 v 0 c 1.22,-0.07 2.35,-0.202 3.546,-0.449 v 0 c 2.256,-0.466 4.299,-0.858 6.606,-1.116 v 0 c 1.632,-0.184 9.53,-1.003 11.834,-1.802 v 0 c 0.088,-0.499 0.17,-0.921 0.439,-1.516 v 0 c 0.622,-1.378 1.73,-2.45 2.928,-3.336 v 0 c 2.082,-1.538 5.022,-2.218 7.406,-0.964 v 0 c 0.995,0.525 1.647,1.281 2.25,2.201 v 0 c 0.153,-0.148 0.296,-0.287 0.408,-0.386 v 0 c 0.389,-0.341 0.797,-0.654 1.242,-0.918 v 0 c 2.032,-1.202 4.631,-0.973 6.882,-0.724 v 0 c 0.706,0.078 3.104,0.406 3.724,0.197 v 0 c 2.459,-1.092 5.192,-1.913 7.652,-0.283 v 0 c 1.018,0.674 1.31,1.385 2.581,1.489 v 0 c 0.291,0.024 1.371,0.134 1.641,0.045 v 0 c 0.119,-0.069 0.327,-0.342 0.407,-0.448 v 0 c 0.43,-0.567 0.947,-1.096 1.442,-1.608 v 0 c 0.319,-0.327 0.801,-0.78 1.078,-1.15 v 0 c 0.148,-0.306 0.16,-0.658 0.232,-0.991 v 0 c 0.364,-1.725 1.412,-2.813 2.795,-3.822 v 0 c 0.809,-0.59 1.637,-1.022 2.541,-1.439 v 0 c 0.311,-0.142 0.836,-0.353 1.103,-0.561 v 0 c 0.341,-0.265 0.393,-1.967 0.399,-2.323 v 0 c 0.054,-4.068 0.137,-7.177 1.877,-10.827 v 0 c -1.267,-0.206 -2.527,-0.509 -3.723,-0.749 v 0 c -0.379,-0.078 -1.39,-0.282 -1.834,-0.248 v 0 c -0.256,0.143 -0.532,0.348 -0.79,0.497 v 0 c -0.745,0.427 -1.526,0.728 -2.354,0.95 v 0 c -3.178,0.858 -6.09,0.332 -8.711,-1.388 v 0 c -0.603,0.587 -1.405,1.035 -2.377,1.297 v 0 c -0.714,0.193 -1.309,0.229 -2.005,0.311 v 0 c -0.509,0.349 -1.006,0.547 -1.635,0.731 v 0 l -3.432,1.045 c -1.063,0.345 -1.758,0.998 -2.836,1.504 v 0 c -2.144,1.006 -4.447,1.545 -6.526,2.652 v 0 c -0.783,0.417 -1.493,0.892 -2.105,1.538 v 0 c -0.673,0.712 -1.087,1.333 -2.009,1.815 v 0 c -0.512,0.267 -1.064,0.419 -1.639,0.456 v 0 c -1.56,0.106 -3.318,0.416 -3.914,-2.109 v 0 c -0.028,-0.118 -0.049,-0.238 -0.06,-0.357 v 0 c -1.095,-3.032 -0.118,-7.641 1.833,-9.999 v 0 c 0.057,-0.068 0.107,-0.124 0.169,-0.187 v 0 l 4.495,-4.541 c 0.336,-0.339 0.695,-0.561 1.152,-0.706 v 0 c 0.052,-0.017 0.102,-0.037 0.153,-0.061 v 0 c 0.523,-0.245 1.2,-0.949 1.605,-1.354 v 0 c 1.187,-1.179 2.328,-2.304 3.626,-3.371 v 0 c 0.741,-0.61 1.176,-0.878 2.004,-1.339 v 0 c 0.592,-0.33 1.047,-0.804 1.698,-1.162 v 0 c 0.722,-0.399 1.198,-0.487 1.829,-0.664 v 0 c 0.408,-0.655 0.954,-1.094 1.653,-1.445 v 0 c -0.557,-0.399 -1.368,-0.869 -1.82,-1.171 v 0 c -1.433,-0.955 -2.81,-1.994 -3.966,-3.281 v 0 c -0.37,-0.41 -0.714,-0.843 -1.024,-1.3 v 0 c -0.219,-0.322 -0.421,-0.655 -0.603,-0.999 v 0 l -2.744,-4.186 c -0.404,-0.617 -0.549,-1.292 -0.43,-2.001 v 0 c -0.145,-0.72 -1.164,-2.191 -1.612,-2.66 v 0 c -1.335,-1.405 -1.671,-3.249 -1.956,-5.086 v 0 c -0.094,-0.601 -0.186,-1.356 -0.392,-1.927 v 0 c -0.658,-1.819 -2.855,-7.017 -4.404,-8.107 v 0 c -0.558,-0.393 -0.917,-0.902 -1.099,-1.56 v 0 c -0.512,-1.843 -2.591,-4.759 -3.893,-6.163 v 0 c -0.06,-0.064 -0.142,-0.154 -0.214,-0.213 v 0 c -0.945,-0.48 -1.387,-0.737 -2.153,-1.541 v 0 c -1.563,-1.638 -3.163,-2.929 -4.959,-4.284 v 0 c -1.484,-1.118 -3.049,-2.271 -3.557,-4.165 v 0 c -0.183,-0.681 -0.204,-1.38 -0.085,-2.074 v 0 c 0.209,-1.203 1.107,-2.102 2.31,-2.31 v 0 c 2.675,-0.464 4.967,1.034 6.862,2.739 v 0 c 0.842,0.758 1.805,1.856 2.694,2.528 v 0 c 0.015,-0.017 0.031,-0.034 0.048,-0.051 v 0 c 0.574,-0.598 1.297,-0.893 2.125,-0.87 v 0 c 0.51,0.017 1.003,0.103 1.48,0.246 v 0 c 0.216,-1.289 1.267,-2.255 2.587,-2.353 v 0 c 0.438,-0.033 0.854,-0.007 1.252,0.067 v 0 c -0.124,-0.593 -0.098,-1.211 0.148,-1.856 v 0 c 0.161,-0.425 0.41,-0.809 0.726,-1.135 v 0 c 0.457,-0.465 1.019,-0.806 1.647,-0.985 v 0 c 2.555,-0.726 4.735,1.393 6.254,3.144 v 0 c 0.598,0.687 1.131,1.41 1.683,2.116 v 0 c 0.043,-0.853 0.338,-1.675 0.819,-2.425 v 0 c 0.212,-0.328 0.448,-0.573 0.768,-0.795 v 0 c 0.91,-0.632 1.978,-0.939 3.085,-0.803 v 0 c 1.787,0.22 2.853,1.369 4.059,2.537 v 0 c 0.193,0.187 0.403,0.389 0.621,0.546 v 0 c 1.854,1.329 3.292,2.827 4.589,4.694 v 0 c 0.563,0.809 1.281,2.095 1.98,2.756 v 0 c 0.127,0.12 0.263,0.225 0.415,0.312 v 0 c 0.87,0.494 3.258,1.647 4.273,1.918 v 0 c 24.125,1.233 49.823,-0.225 78.6,-1.684 v 0 c 29.539,-1.497 62.323,-2.994 99.984,-1.579 v 0 c 1.792,0.066 3.004,1.324 3.693,2.867 v 0 c 1.198,2.69 0.324,8.534 -1.024,11.121 v 0 c -0.457,0.878 -0.914,1.675 -1.469,2.494 v 0 c -0.808,1.19 -1.469,2.736 -2.068,4.033 v 0 c -0.305,0.659 -0.81,1.411 -1.143,2.125 v 0 c 1.176,-0.303 2.391,-0.19 3.441,0.515 v 0 c 1.156,0.777 1.626,1.887 2.067,3.137 v 0 c 0.06,0.17 0.118,0.343 0.188,0.507 v 0 c 0.529,1.261 1.201,2.463 1.737,3.73 v 0 c 0.449,1.063 1.015,2.126 1.829,2.957 v 0 c 0.636,0.648 1.245,1.057 1.743,1.779 v 0 c 0.26,-0.193 0.544,-0.365 0.853,-0.513 v 0 c 0.503,-0.242 1.273,-0.419 1.7,-0.726 v 0 c 0.033,-0.023 0.061,-0.072 0.083,-0.103 v 0 c 0.277,-0.413 0.481,-0.759 0.842,-1.124 v 0 c 1.085,-1.1 2.481,-1.349 3.961,-1.19 v 0 c 1.258,0.135 2.242,1.038 2.482,2.28 v 0 c 0.335,1.728 0.493,3.508 -0.624,5.011 v 0 c -0.163,0.219 -0.335,0.409 -0.514,0.578 v 0 c 0.461,-0.028 0.937,-0.021 1.458,0 v 0 c 0.432,0.018 0.807,0.046 1.218,-0.114 v 0 c 0.682,-0.267 1.245,-0.832 1.978,-1.151 v 0 c 1.196,-0.522 2.394,-0.464 3.618,-0.086 v 0 c 1.009,0.312 1.719,1.089 1.937,2.122 v 0 c 0.115,0.542 0.144,1.088 0.079,1.623 v 0 c 0.812,-0.765 1.504,-1.667 2.034,-2.749 v 0 c 0.597,-1.217 0.844,-2.567 1.506,-3.828 v 0 c 0.573,-1.089 1.235,-1.681 1.577,-2.853 v 0 c 0.4,-1.372 0.726,-2.819 1.223,-4.153 v 0 c 0.483,-1.296 1.326,-2.294 1.862,-3.509 v 0 c 0.407,-0.92 0.899,-1.629 1.554,-2.383 v 0 c 0.27,-0.313 0.543,-0.609 0.758,-0.967 v 0 c 0.131,-0.22 0.22,-0.502 0.305,-0.743 v 0 c 0.298,-0.831 0.656,-1.524 1.37,-2.09 v 0 c 1.383,-1.093 3.011,-0.864 4.53,-0.267 v 0 c 0.755,0.297 1.294,0.834 1.595,1.588 v 0 c 0.597,1.496 0.649,3.05 -0.24,4.448 v 0 c -0.304,0.481 -0.669,0.857 -1.083,1.24 v 0 c -0.099,0.09 -0.269,0.232 -0.349,0.338 v 0 c -0.577,0.973 -1.098,2.445 -1.511,3.538 v 0 c -0.478,1.265 -0.923,2.543 -1.41,3.804 v 0 c -0.413,1.071 -0.881,1.913 -1.481,2.877 v 0 c -0.216,0.345 -0.409,0.676 -0.573,1.05 v 0 c -1.494,3.449 -3.241,9.828 -5.948,12.224 v 0 c -3.128,2.769 -6.385,5.333 -9.936,7.545 v 0 c -3.801,2.371 -5.05,3.345 -9.798,3.395 v 0 c -1.071,0.012 -1.99,-0.111 -3.033,-0.315 v 0 c -0.622,-0.122 -1.146,-0.206 -1.786,-0.201 v 0 c -2.567,0.022 -3.986,0.15 -6.441,-0.99 v 0 c -1.291,-0.601 -2.533,-1.61 -3.722,-2.409 v 0 c -0.165,-0.111 -0.468,-0.309 -0.804,-0.51 v 0 c -0.241,0.49 -0.527,0.95 -0.863,1.436 v 0 c -0.417,1.104 -0.579,4.532 -0.648,5.707 v 0 c -0.079,1.324 -0.139,2.651 -0.222,3.974 v 0 c -0.062,1.023 -0.123,2.146 -0.32,3.151 v 0 c -0.226,1.146 -1.313,3.642 -1.946,4.655 v 0 c -0.616,0.989 -1.391,1.768 -2.358,2.413 v 0 c -0.526,0.351 -1.092,0.62 -1.61,0.961 v 0 c -0.417,0.275 -0.489,0.535 -0.59,1.035 v 0 c -0.245,1.215 -1.186,3.772 -1.784,4.863 v 0 c -0.593,1.08 -1.339,1.738 -2.369,2.37 v 0 c -0.084,0.052 -0.388,0.224 -0.483,0.32 v 0 c 0,0.007 -10e-4,0.012 -10e-4,0.018 v 0 c -0.026,0.358 0.03,0.803 0.043,1.167 v 0 c 0.031,0.888 -0.043,1.721 -0.325,2.569 v 0 c -0.373,1.127 -0.893,2.006 -1.546,2.981 v 0 c -0.967,1.444 -1.198,2.159 -1.218,3.963 v 0 c -0.014,1.332 0.157,2.881 0.299,4.208 v 0 c 0.103,0.948 0.286,2.92 0.608,3.783 v 0 c 0.62,1.282 0.867,2.68 0.674,4.169 v 0 c -0.179,1.375 -0.712,2.541 -1.018,3.859 v 0 c -0.186,0.805 -0.38,1.523 -0.707,2.176 v 0 c 1.249,2.002 0.969,4.789 0.891,7.051 v 0 c -0.027,0.82 -0.089,2.53 0.252,3.282 v 0 c 0.4,0.876 0.671,1.705 0.725,2.672 v 0 c 0.033,0.585 -0.011,1.157 0.037,1.747 v 0 c 0.064,0.8 0.189,1.182 0.427,1.92 v 0 c 0.537,1.671 0.414,3.232 0.187,4.95 v 0 c -0.129,0.979 0.235,1.433 0.668,2.277 v 0 c 0.537,1.043 0.884,2.023 0.952,3.207 v 0 c 0.052,0.878 -0.147,1.715 -0.225,2.581 v 0 c -0.119,1.296 -0.012,2.623 0.167,3.907 v 0 c 0.046,0.331 0.239,0.725 0.364,1.032 v 0 c 0.198,0.485 0.364,0.964 0.469,1.479 v 0 c 0.236,1.156 0.139,2.092 0.163,3.23 v 0 c 0.004,0.18 0.014,0.368 0.047,0.545 v 0 c 0.465,2.475 1.123,4.724 0.867,7.293 v 0 c -0.213,2.145 -0.137,6.434 -1.152,8.182 v 0 c -0.098,0.171 -0.265,0.452 -0.391,0.712 v 0 c 0.116,0.186 0.23,0.374 0.336,0.588 v 0 c 0.4,0.818 0.613,1.682 0.695,2.587 v 0 c 0.262,2.813 0.406,4.935 -0.558,7.676 v 0 c -0.577,1.641 -0.962,3.366 -1.552,5.031 v 0 c -0.998,2.817 -2.624,6.179 -5.842,6.876 v 0 c -1.588,0.344 -3.17,0.144 -4.487,-0.862 v 0 c -1.32,-1.009 -1.866,-2.387 -2.46,-3.866 v 0 c -0.063,-0.157 -0.127,-0.315 -0.195,-0.471 v 0 c -0.487,-1.126 -0.738,-2.222 -1.096,-3.379 v 0 c -0.181,-0.588 -0.389,-1.137 -0.751,-1.64 v 0 c -0.4,-0.556 -0.788,-1.12 -1.104,-1.711 v 0 c -0.235,0.801 -0.518,1.581 -0.67,2.393 v 0 c -0.27,1.439 -0.251,2.518 -0.77,3.981 v 0 c -0.723,2.039 -0.433,7.578 -0.337,9.827 v 0 c 0.082,1.907 0.19,3.813 0.27,5.721 v 0 c 0.065,1.557 0.131,3.175 0.047,4.73 v 0 c -0.16,2.901 -0.381,6.203 -0.172,9.104 v 0 c 0.048,0.663 0.083,1.161 0.369,1.751 v 0 c 0.703,1.445 0.911,2.64 1.039,4.242 v 0 c 0.108,1.365 -0.044,2.995 -0.137,4.369 v 0 c -0.055,0.813 -0.115,1.626 -0.161,2.441 v 0 c -0.021,0.377 -0.063,0.857 -0.046,1.245 v 0 c 0.177,0.92 -0.103,1.837 -0.758,2.5 v 0 c -0.004,0.414 0.047,0.94 0.045,1.296 v 0 c -0.016,5.525 0.012,10.988 -0.705,16.479 v 0 c -0.275,2.115 -0.374,5.012 -2.554,6.09 v 0 c -0.034,0.016 -0.068,0.032 -0.101,0.048 v 0 c 0.691,0.642 0.941,1.527 1.19,2.499 v 0 c 0.189,0.735 0.21,2.304 0.169,3.096 v 0 c -0.101,1.992 -0.772,6.978 -1.634,8.641 v 0 c -0.37,0.714 -0.69,1.087 -1.147,1.684 v 0 c -0.066,0.171 -0.118,0.431 -0.153,0.595 v 0 c -0.176,0.82 -0.657,1.475 -1.361,1.869 v 0 c -0.228,0.238 -0.486,0.603 -0.67,0.84 v 0 c -0.488,0.628 -0.999,1.277 -1.623,1.774 v 0 c -0.886,0.71 -2.109,1.479 -2.814,2.369 v 0 c -0.781,0.986 -1.553,1.628 -2.617,2.277 v 0 c -0.337,0.206 -0.665,0.395 -0.96,0.662 v 0 c -0.066,0.058 -0.186,0.165 -0.235,0.24 v 0 c -0.131,0.234 -0.214,0.456 -0.37,0.698 v 0 c -0.974,1.515 -2.731,1.857 -4.369,2.185 v 0 c -1.685,0.336 -3.505,0.614 -5.297,0.614 v 0 c -2.639,0 -5.217,-0.602 -7.21,-2.503"
         transform="translate(-356.90531,-301.27341)"
         id="path134" />
    </clipPath>
    <clipPath
       clipPathUnits="userSpaceOnUse"
       id="clipPath140">
      <path
         d="m 337.153,585.652 c -1.509,-1.438 -2.435,-2.849 -3.051,-4.833 v 0 c -0.456,-1.467 -0.63,-2.41 -1.513,-3.735 v 0 c -1.688,-2.537 -2.77,-5.67 -4.056,-8.44 v 0 c -0.862,-1.858 -1.597,-3.694 -1.11,-5.766 v 0 c 0.098,-0.414 0.221,-0.732 0.223,-1.162 v 0 c 0.002,-1.021 -0.384,-2.392 -0.67,-3.359 v 0 c -0.509,-1.722 -0.897,-3.524 -1.104,-5.346 v 0 l -0.009,0.005 c -2.499,1.393 -5.589,1.014 -8.042,-0.278 v 0 c -2.656,-1.399 -4.662,-3.852 -5.369,-6.784 v 0 c -0.472,-1.958 -0.404,-3.535 0.158,-5.45 v 0 c 0.248,-0.851 0.522,-1.594 0.545,-2.494 v 0 c 0.023,-0.922 -0.151,-1.692 -0.399,-2.57 v 0 c -0.415,-1.466 -0.773,-2.724 -0.874,-4.267 v 0 c -0.142,-2.159 0.166,-3.665 0.616,-5.724 v 0 c 0.139,-0.637 0.248,-1.248 0.25,-1.903 v 0 c 0.001,-0.429 -0.129,-0.799 -0.234,-1.21 v 0 c -0.273,-1.096 -0.3,-2.059 -0.071,-3.169 v 0 c 0.833,-4.021 3.907,-8.209 8.095,-9.103 v 0 c 0.744,-0.159 3.267,-0.281 4.286,-0.57 v 0 c 0.07,-0.769 0.057,-1.716 0.055,-2.297 v 0 c -0.007,-1.806 -0.091,-3.623 -0.187,-5.426 v 0 c -0.153,-2.921 -0.424,-5.919 -0.463,-8.835 v 0 c -0.016,-1.247 0.216,-2.475 0.461,-3.692 v 0 c 0.148,-0.737 0.558,-2.522 0.296,-3.238 v 0 c -0.239,-0.65 -0.367,-1.316 -0.443,-1.988 v 0 c -1.679,1.746 -3.566,3.033 -5.843,4.132 v 0 c -0.952,0.46 -3.172,1.312 -3.874,2.042 v 0 c -0.049,0.051 -0.097,0.106 -0.137,0.164 v 0 c -3.069,4.272 -5.337,5.03 -10.408,5.522 v 0 c -0.334,0.033 -1.309,0.087 -1.642,0.199 v 0 c -0.116,0.105 -0.28,0.346 -0.356,0.459 v 0 c -0.095,0.142 -0.219,0.317 -0.34,0.501 v 0 c 0.363,0.834 0.464,1.708 0.42,2.768 v 0 c -0.044,1.098 -0.674,2.023 -1.652,2.464 v 0 l 0.006,0.555 c 0.011,0.98 -0.434,1.828 -1.247,2.378 v 0 c -0.735,0.499 -1.406,0.802 -2.174,0.911 v 0 c -0.237,0.342 -0.487,0.756 -0.698,1.115 v 0 c 0.591,0.209 1.1,0.619 1.453,1.193 v 0 c 0.276,0.45 0.456,0.794 0.575,1.097 v 0 c 0.388,0.14 0.755,0.335 1.14,0.56 v 0 c 1.118,0.657 1.64,1.936 1.3,3.188 v 0 c -0.82,3.019 -2.753,4.625 -5.209,6.067 v 0 c 0.036,0.139 0.065,0.28 0.086,0.427 v 0 c 0.259,1.816 -0.766,3.201 -2.152,4.221 v 0 c -0.255,0.187 -0.505,0.356 -0.756,0.507 v 0 c 0.199,0.461 0.344,0.951 0.453,1.451 v 0 c 0.303,1.405 -0.478,2.798 -1.834,3.274 v 0 l -1.231,0.431 c -0.166,0.057 -0.313,0.095 -0.484,0.122 v 0 c -0.446,0.783 -1.078,1.388 -1.74,2.002 v 0 c -0.51,0.473 -1.096,0.72 -1.791,0.754 v 0 c -1.44,0.069 -2.641,0.008 -3.751,-0.818 v 0 c -0.006,0 -0.012,0 -0.017,0 v 0 c -0.917,-0.024 -2.27,-0.14 -3.176,-0.043 v 0 c -0.042,0.011 -0.084,0.022 -0.128,0.032 v 0 c -0.213,0.05 -0.475,0.187 -0.67,0.283 v 0 c -0.593,0.288 -1.144,0.537 -1.795,0.674 v 0 c -1.088,0.228 -2.159,0.078 -3.157,-0.405 v 0 c -1.121,-0.543 -1.72,-1.026 -2.663,-1.768 v 0 c -0.495,-0.389 -2.27,-0.584 -2.847,-0.655 v 0 c -1.23,-0.153 -2.256,-0.431 -3.256,-1.193 v 0 c -0.227,-0.174 -0.376,-0.323 -0.638,-0.44 v 0 c -0.905,-0.408 -1.936,-0.614 -2.885,-0.91 v 0 c -1.629,-0.509 -2.965,-1.222 -4.19,-2.433 v 0 c -0.706,-0.699 -1.27,-1.536 -1.859,-2.337 v 0 c -0.371,0.429 -0.824,0.791 -1.36,1.113 v 0 c -2.482,1.487 -6.048,1.07 -7.403,-1.743 v 0 c -0.32,-0.664 -0.375,-1.367 -0.168,-2.037 v 0 c -0.02,-0.02 -0.039,-0.041 -0.059,-0.061 v 0 c -0.54,-0.575 -0.798,-1.263 -0.767,-2.051 v 0 c 0.046,-1.198 0.516,-2.288 0.945,-3.385 v 0 c 0.04,-0.103 0.102,-0.256 0.164,-0.423 v 0 c -3.077,-0.341 -7.463,-0.697 -8.895,-3.907 v 0 c -0.364,-0.82 -0.461,-1.711 -0.307,-2.593 v 0 c 0.135,-0.774 0.529,-1.392 1.174,-1.841 v 0 c 0.678,-0.471 1.398,-0.784 2.157,-0.896 v 0 c -0.523,-0.567 -0.959,-1.181 -1.24,-1.981 v 0 c -0.278,-0.792 -0.336,-1.63 -0.176,-2.453 v 0 c 0.076,-0.386 0.216,-0.735 0.418,-1.039 v 0 c -0.42,-0.472 -0.73,-1.045 -0.878,-1.7 v 0 c -0.425,-1.883 0.63,-3.518 2.205,-4.427 v 0 c 0.145,-0.502 0.389,-0.987 0.711,-1.47 v 0 c 0.709,-1.058 1.646,-1.83 2.966,-1.93 v 0 c 0.322,-0.024 0.561,0 0.816,0.038 v 0 c 0.18,-0.391 0.33,-0.76 0.644,-1.2 v 0 c 0.579,-0.808 1.172,-1.394 1.982,-1.723 v 0 c 0.139,-0.545 0.275,-1.1 0.403,-1.648 v 0 c -0.473,-0.512 -1.065,-1.008 -1.491,-1.408 v 0 c -0.385,-0.362 -0.758,-0.734 -1.108,-1.132 v 0 c -0.619,-0.707 -1.137,-1.475 -1.514,-2.337 v 0 c -0.519,-1.187 -0.686,-2.317 -0.408,-3.588 v 0 c 0.144,-0.659 0.331,-0.92 0.21,-1.593 v 0 c -0.402,-2.229 -0.815,-3.58 0.041,-5.875 v 0 c 0.297,-0.795 0.864,-1.364 1.659,-1.663 v 0 c 0.672,-0.252 1.362,-0.407 2.037,-0.401 v 0 c -0.006,-0.06 -0.012,-0.118 -0.017,-0.177 v 0 c -0.515,-0.251 -0.95,-0.597 -1.384,-1.015 v 0 c -0.775,-0.749 -1.054,-1.792 -0.754,-2.828 v 0 c 0.144,-0.496 0.309,-0.93 0.513,-1.311 v 0 c -0.093,-0.097 -0.187,-0.203 -0.282,-0.317 v 0 c -0.494,-0.594 -0.71,-1.28 -0.645,-2.05 v 0 c 0.053,-0.634 0.163,-1.23 0.365,-1.762 v 0 c -0.148,-0.114 -0.303,-0.248 -0.475,-0.417 v 0 c -0.564,-0.554 -0.87,-0.993 -1.195,-1.642 v 0 c -0.037,-0.026 -0.075,-0.051 -0.109,-0.075 v 0 c -0.622,-0.42 -1.012,-0.993 -1.177,-1.726 v 0 c -0.085,-0.376 -0.174,-0.424 -0.381,-0.762 v 0 c -0.829,-1.354 -0.838,-2.732 -0.672,-4.264 v 0 c 0.124,-1.154 0.893,-2.074 1.988,-2.405 v 0 c -0.046,-0.476 -0.049,-0.922 -0.325,-1.347 v 0 c -0.328,-0.503 -2.81,-0.623 -3.35,-0.633 v 0 c -0.655,-0.013 -1.313,0.002 -1.97,0.019 v 0 c -0.824,0.018 -1.648,0.038 -2.465,0.003 v 0 c -3.325,-0.144 -6.647,-0.082 -9.968,-0.02 v 0 c -2.569,0.049 -5.137,0.097 -7.706,0.05 v 0 c -1.414,-0.026 -2.952,0.25 -4.35,0.462 v 0 c -2.18,0.331 -4.303,0.597 -6.512,0.647 v 0 c -0.551,0.011 -1.404,0.011 -1.938,0.194 v 0 c -0.806,0.277 -1.497,0.547 -2.34,0.762 v 0 c -1.314,0.336 -2.489,0.471 -3.813,0.1 v 0 c -0.613,-0.171 -0.95,-0.331 -1.604,-0.375 v 0 c -1.607,-0.106 -3.677,0.246 -5.249,0.528 v 0 c -1.684,0.301 -3.367,0.639 -5.056,0.9 v 0 c -1.914,0.295 -3.807,0.45 -5.743,0.53 v 0 c -1.802,0.075 -3.608,0.08 -5.41,0.13 v 0 c -1.825,0.05 -3.855,0.111 -5.646,0.459 v 0 c -1.7,0.33 -3.389,0.741 -5.094,1.041 v 0 c -1.998,0.354 -3.919,0.493 -5.949,0.46 v 0 c -1.923,-0.031 -3.845,-0.038 -5.768,-0.039 v 0 c -1.342,-10e-4 -2.476,-0.11 -3.771,-0.46 v 0 c -0.619,-0.168 -1.147,-0.306 -1.79,-0.385 v 0 c -0.791,-0.098 -1.632,-0.073 -2.47,-0.047 v 0 c -0.556,0.018 -1.109,0.035 -1.645,0.016 v 0 c -0.562,-0.021 -1.123,-0.07 -1.678,-0.164 v 0 c -0.857,-0.145 -1.663,-0.338 -2.507,-0.527 v 0 c -0.805,-0.18 -1.587,-0.236 -2.412,-0.272 v 0 c -4.686,-0.207 -9.176,-3.946 -8.887,-8.912 v 0 c 0.197,-3.398 2.547,-5.51 4.772,-7.761 v 0 c 0.728,-0.737 1.605,-1.648 2.044,-2.596 v 0 c 0.605,-1.309 0.169,-2.58 -0.479,-3.787 v 0 c -0.86,-1.601 -0.913,-3.238 -1.509,-4.846 v 0 c -0.37,-0.998 -0.828,-1.854 -0.981,-2.933 v 0 c -0.221,-1.555 0.261,-2.92 1.023,-4.252 v 0 c 0.296,-0.517 0.622,-1.001 0.988,-1.471 v 0 c 0.111,-0.142 0.266,-0.314 0.369,-0.465 v 0 c 0.08,-0.289 0.092,-0.895 0.1,-1.166 v 0 c 0.058,-1.934 0.212,-3.865 0.243,-5.8 v 0 c 0.032,-2.069 0.611,-3.994 2.383,-5.226 v 0 c 1.007,-0.702 1.915,-0.861 3.008,-1.266 v 0 c 0.534,-0.197 0.872,-0.401 1.201,-0.878 v 0 c 1.232,-1.793 2.648,-3.908 4.885,-4.473 v 0 c 1.01,-0.254 1.943,-0.16 2.955,-0.028 v 0 c 0.994,0.127 1.937,0.23 2.942,0.248 v 0 c 1.674,0.03 2.857,-0.294 4.419,-0.815 v 0 c 1.832,-0.609 3.393,-1.053 5.347,-1.164 v 0 c 1.22,-0.07 2.35,-0.202 3.546,-0.449 v 0 c 2.256,-0.466 4.299,-0.858 6.606,-1.116 v 0 c 1.632,-0.184 9.53,-1.003 11.834,-1.802 v 0 c 0.088,-0.499 0.17,-0.921 0.439,-1.516 v 0 c 0.622,-1.378 1.73,-2.45 2.928,-3.336 v 0 c 2.082,-1.538 5.022,-2.218 7.406,-0.964 v 0 c 0.995,0.525 1.647,1.281 2.25,2.201 v 0 c 0.153,-0.148 0.296,-0.287 0.408,-0.386 v 0 c 0.389,-0.341 0.797,-0.654 1.242,-0.918 v 0 c 2.032,-1.202 4.631,-0.973 6.882,-0.724 v 0 c 0.706,0.078 3.104,0.406 3.724,0.197 v 0 c 2.459,-1.092 5.192,-1.913 7.652,-0.283 v 0 c 1.018,0.674 1.31,1.385 2.581,1.489 v 0 c 0.291,0.024 1.371,0.134 1.641,0.045 v 0 c 0.119,-0.069 0.327,-0.342 0.407,-0.448 v 0 c 0.43,-0.567 0.947,-1.096 1.442,-1.608 v 0 c 0.319,-0.327 0.801,-0.78 1.078,-1.15 v 0 c 0.148,-0.306 0.16,-0.658 0.232,-0.991 v 0 c 0.364,-1.725 1.412,-2.813 2.795,-3.822 v 0 c 0.809,-0.59 1.637,-1.022 2.541,-1.439 v 0 c 0.311,-0.142 0.836,-0.353 1.103,-0.561 v 0 c 0.341,-0.265 0.393,-1.967 0.399,-2.323 v 0 c 0.054,-4.068 0.137,-7.177 1.877,-10.827 v 0 c -1.267,-0.206 -2.527,-0.509 -3.723,-0.749 v 0 c -0.379,-0.078 -1.39,-0.282 -1.834,-0.248 v 0 c -0.256,0.143 -0.532,0.348 -0.79,0.497 v 0 c -0.745,0.427 -1.526,0.728 -2.354,0.95 v 0 c -3.178,0.858 -6.09,0.332 -8.711,-1.388 v 0 c -0.603,0.587 -1.405,1.035 -2.377,1.297 v 0 c -0.714,0.193 -1.309,0.229 -2.005,0.311 v 0 c -0.509,0.349 -1.006,0.547 -1.635,0.731 v 0 l -3.432,1.045 c -1.063,0.345 -1.758,0.998 -2.836,1.504 v 0 c -2.144,1.006 -4.447,1.545 -6.526,2.652 v 0 c -0.783,0.417 -1.493,0.892 -2.105,1.538 v 0 c -0.673,0.712 -1.087,1.333 -2.009,1.815 v 0 c -0.512,0.267 -1.064,0.419 -1.639,0.456 v 0 c -1.56,0.106 -3.318,0.416 -3.914,-2.109 v 0 c -0.028,-0.118 -0.049,-0.238 -0.06,-0.357 v 0 c -1.095,-3.032 -0.118,-7.641 1.833,-9.999 v 0 c 0.057,-0.068 0.107,-0.124 0.169,-0.187 v 0 l 4.495,-4.541 c 0.336,-0.339 0.695,-0.561 1.152,-0.706 v 0 c 0.052,-0.017 0.102,-0.037 0.153,-0.061 v 0 c 0.523,-0.245 1.2,-0.949 1.605,-1.354 v 0 c 1.187,-1.179 2.328,-2.304 3.626,-3.371 v 0 c 0.741,-0.61 1.176,-0.878 2.004,-1.339 v 0 c 0.592,-0.33 1.047,-0.804 1.698,-1.162 v 0 c 0.722,-0.399 1.198,-0.487 1.829,-0.664 v 0 c 0.408,-0.655 0.954,-1.094 1.653,-1.445 v 0 c -0.557,-0.399 -1.368,-0.869 -1.82,-1.171 v 0 c -1.433,-0.955 -2.81,-1.994 -3.966,-3.281 v 0 c -0.37,-0.41 -0.714,-0.843 -1.024,-1.3 v 0 c -0.219,-0.322 -0.421,-0.655 -0.603,-0.999 v 0 l -2.744,-4.186 c -0.404,-0.617 -0.549,-1.292 -0.43,-2.001 v 0 c -0.145,-0.72 -1.164,-2.191 -1.612,-2.66 v 0 c -1.335,-1.405 -1.671,-3.249 -1.956,-5.086 v 0 c -0.094,-0.601 -0.186,-1.356 -0.392,-1.927 v 0 c -0.658,-1.819 -2.855,-7.017 -4.404,-8.107 v 0 c -0.558,-0.393 -0.917,-0.902 -1.099,-1.56 v 0 c -0.512,-1.843 -2.591,-4.759 -3.893,-6.163 v 0 c -0.06,-0.064 -0.142,-0.154 -0.214,-0.213 v 0 c -0.945,-0.48 -1.387,-0.737 -2.153,-1.541 v 0 c -1.563,-1.638 -3.163,-2.929 -4.959,-4.284 v 0 c -1.484,-1.118 -3.049,-2.271 -3.557,-4.165 v 0 c -0.183,-0.681 -0.204,-1.38 -0.085,-2.074 v 0 c 0.209,-1.203 1.107,-2.102 2.31,-2.31 v 0 c 2.675,-0.464 4.967,1.034 6.862,2.739 v 0 c 0.842,0.758 1.805,1.856 2.694,2.528 v 0 c 0.015,-0.017 0.031,-0.034 0.048,-0.051 v 0 c 0.574,-0.598 1.297,-0.893 2.125,-0.87 v 0 c 0.51,0.017 1.003,0.103 1.48,0.246 v 0 c 0.216,-1.289 1.267,-2.255 2.587,-2.353 v 0 c 0.438,-0.033 0.854,-0.007 1.252,0.067 v 0 c -0.124,-0.593 -0.098,-1.211 0.148,-1.856 v 0 c 0.161,-0.425 0.41,-0.809 0.726,-1.135 v 0 c 0.457,-0.465 1.019,-0.806 1.647,-0.985 v 0 c 2.555,-0.726 4.735,1.393 6.254,3.144 v 0 c 0.598,0.687 1.131,1.41 1.683,2.116 v 0 c 0.043,-0.853 0.338,-1.675 0.819,-2.425 v 0 c 0.212,-0.328 0.448,-0.573 0.768,-0.795 v 0 c 0.91,-0.632 1.978,-0.939 3.085,-0.803 v 0 c 1.787,0.22 2.853,1.369 4.059,2.537 v 0 c 0.193,0.187 0.403,0.389 0.621,0.546 v 0 c 1.854,1.329 3.292,2.827 4.589,4.694 v 0 c 0.563,0.809 1.281,2.095 1.98,2.756 v 0 c 0.127,0.12 0.263,0.225 0.415,0.312 v 0 c 0.87,0.494 3.258,1.647 4.273,1.918 v 0 c 24.125,1.233 49.823,-0.225 78.6,-1.684 v 0 c 29.539,-1.497 62.323,-2.994 99.984,-1.579 v 0 c 1.792,0.066 3.004,1.324 3.693,2.867 v 0 c 1.198,2.69 0.324,8.534 -1.024,11.121 v 0 c -0.457,0.878 -0.914,1.675 -1.469,2.494 v 0 c -0.808,1.19 -1.469,2.736 -2.068,4.033 v 0 c -0.305,0.659 -0.81,1.411 -1.143,2.125 v 0 c 1.176,-0.303 2.391,-0.19 3.441,0.515 v 0 c 1.156,0.777 1.626,1.887 2.067,3.137 v 0 c 0.06,0.17 0.118,0.343 0.188,0.507 v 0 c 0.529,1.261 1.201,2.463 1.737,3.73 v 0 c 0.449,1.063 1.015,2.126 1.829,2.957 v 0 c 0.636,0.648 1.245,1.057 1.743,1.779 v 0 c 0.26,-0.193 0.544,-0.365 0.853,-0.513 v 0 c 0.503,-0.242 1.273,-0.419 1.7,-0.726 v 0 c 0.033,-0.023 0.061,-0.072 0.083,-0.103 v 0 c 0.277,-0.413 0.481,-0.759 0.842,-1.124 v 0 c 1.085,-1.1 2.481,-1.349 3.961,-1.19 v 0 c 1.258,0.135 2.242,1.038 2.482,2.28 v 0 c 0.335,1.728 0.493,3.508 -0.624,5.011 v 0 c -0.163,0.219 -0.335,0.409 -0.514,0.578 v 0 c 0.461,-0.028 0.937,-0.021 1.458,0 v 0 c 0.432,0.018 0.807,0.046 1.218,-0.114 v 0 c 0.682,-0.267 1.245,-0.832 1.978,-1.151 v 0 c 1.196,-0.522 2.394,-0.464 3.618,-0.086 v 0 c 1.009,0.312 1.719,1.089 1.937,2.122 v 0 c 0.115,0.542 0.144,1.088 0.079,1.623 v 0 c 0.812,-0.765 1.504,-1.667 2.034,-2.749 v 0 c 0.597,-1.217 0.844,-2.567 1.506,-3.828 v 0 c 0.573,-1.089 1.235,-1.681 1.577,-2.853 v 0 c 0.4,-1.372 0.726,-2.819 1.223,-4.153 v 0 c 0.483,-1.296 1.326,-2.294 1.862,-3.509 v 0 c 0.407,-0.92 0.899,-1.629 1.554,-2.383 v 0 c 0.27,-0.313 0.543,-0.609 0.758,-0.967 v 0 c 0.131,-0.22 0.22,-0.502 0.305,-0.743 v 0 c 0.298,-0.831 0.656,-1.524 1.37,-2.09 v 0 c 1.383,-1.093 3.011,-0.864 4.53,-0.267 v 0 c 0.755,0.297 1.294,0.834 1.595,1.588 v 0 c 0.597,1.496 0.649,3.05 -0.24,4.448 v 0 c -0.304,0.481 -0.669,0.857 -1.083,1.24 v 0 c -0.099,0.09 -0.269,0.232 -0.349,0.338 v 0 c -0.577,0.973 -1.098,2.445 -1.511,3.538 v 0 c -0.478,1.265 -0.923,2.543 -1.41,3.804 v 0 c -0.413,1.071 -0.881,1.913 -1.481,2.877 v 0 c -0.216,0.345 -0.409,0.676 -0.573,1.05 v 0 c -1.494,3.449 -3.241,9.828 -5.948,12.224 v 0 c -3.128,2.769 -6.385,5.333 -9.936,7.545 v 0 c -3.801,2.371 -5.05,3.345 -9.798,3.395 v 0 c -1.071,0.012 -1.99,-0.111 -3.033,-0.315 v 0 c -0.622,-0.122 -1.146,-0.206 -1.786,-0.201 v 0 c -2.567,0.022 -3.986,0.15 -6.441,-0.99 v 0 c -1.291,-0.601 -2.533,-1.61 -3.722,-2.409 v 0 c -0.165,-0.111 -0.468,-0.309 -0.804,-0.51 v 0 c -0.241,0.49 -0.527,0.95 -0.863,1.436 v 0 c -0.417,1.104 -0.579,4.532 -0.648,5.707 v 0 c -0.079,1.324 -0.139,2.651 -0.222,3.974 v 0 c -0.062,1.023 -0.123,2.146 -0.32,3.151 v 0 c -0.226,1.146 -1.313,3.642 -1.946,4.655 v 0 c -0.616,0.989 -1.391,1.768 -2.358,2.413 v 0 c -0.526,0.351 -1.092,0.62 -1.61,0.961 v 0 c -0.417,0.275 -0.489,0.535 -0.59,1.035 v 0 c -0.245,1.215 -1.186,3.772 -1.784,4.863 v 0 c -0.593,1.08 -1.339,1.738 -2.369,2.37 v 0 c -0.084,0.052 -0.388,0.224 -0.483,0.32 v 0 c 0,0.007 -10e-4,0.012 -10e-4,0.018 v 0 c -0.026,0.358 0.03,0.803 0.043,1.167 v 0 c 0.031,0.888 -0.043,1.721 -0.325,2.569 v 0 c -0.373,1.127 -0.893,2.006 -1.546,2.981 v 0 c -0.967,1.444 -1.198,2.159 -1.218,3.963 v 0 c -0.014,1.332 0.157,2.881 0.299,4.208 v 0 c 0.103,0.948 0.286,2.92 0.608,3.783 v 0 c 0.62,1.282 0.867,2.68 0.674,4.169 v 0 c -0.179,1.375 -0.712,2.541 -1.018,3.859 v 0 c -0.186,0.805 -0.38,1.523 -0.707,2.176 v 0 c 1.249,2.002 0.969,4.789 0.891,7.051 v 0 c -0.027,0.82 -0.089,2.53 0.252,3.282 v 0 c 0.4,0.876 0.671,1.705 0.725,2.672 v 0 c 0.033,0.585 -0.011,1.157 0.037,1.747 v 0 c 0.064,0.8 0.189,1.182 0.427,1.92 v 0 c 0.537,1.671 0.414,3.232 0.187,4.95 v 0 c -0.129,0.979 0.235,1.433 0.668,2.277 v 0 c 0.537,1.043 0.884,2.023 0.952,3.207 v 0 c 0.052,0.878 -0.147,1.715 -0.225,2.581 v 0 c -0.119,1.296 -0.012,2.623 0.167,3.907 v 0 c 0.046,0.331 0.239,0.725 0.364,1.032 v 0 c 0.198,0.485 0.364,0.964 0.469,1.479 v 0 c 0.236,1.156 0.139,2.092 0.163,3.23 v 0 c 0.004,0.18 0.014,0.368 0.047,0.545 v 0 c 0.465,2.475 1.123,4.724 0.867,7.293 v 0 c -0.213,2.145 -0.137,6.434 -1.152,8.182 v 0 c -0.098,0.171 -0.265,0.452 -0.391,0.712 v 0 c 0.116,0.186 0.23,0.374 0.336,0.588 v 0 c 0.4,0.818 0.613,1.682 0.695,2.587 v 0 c 0.262,2.813 0.406,4.935 -0.558,7.676 v 0 c -0.577,1.641 -0.962,3.366 -1.552,5.031 v 0 c -0.998,2.817 -2.624,6.179 -5.842,6.876 v 0 c -1.588,0.344 -3.17,0.144 -4.487,-0.862 v 0 c -1.32,-1.009 -1.866,-2.387 -2.46,-3.866 v 0 c -0.063,-0.157 -0.127,-0.315 -0.195,-0.471 v 0 c -0.487,-1.126 -0.738,-2.222 -1.096,-3.379 v 0 c -0.181,-0.588 -0.389,-1.137 -0.751,-1.64 v 0 c -0.4,-0.556 -0.788,-1.12 -1.104,-1.711 v 0 c -0.235,0.801 -0.518,1.581 -0.67,2.393 v 0 c -0.27,1.439 -0.251,2.518 -0.77,3.981 v 0 c -0.723,2.039 -0.433,7.578 -0.337,9.827 v 0 c 0.082,1.907 0.19,3.813 0.27,5.721 v 0 c 0.065,1.557 0.131,3.175 0.047,4.73 v 0 c -0.16,2.901 -0.381,6.203 -0.172,9.104 v 0 c 0.048,0.663 0.083,1.161 0.369,1.751 v 0 c 0.703,1.445 0.911,2.64 1.039,4.242 v 0 c 0.108,1.365 -0.044,2.995 -0.137,4.369 v 0 c -0.055,0.813 -0.115,1.626 -0.161,2.441 v 0 c -0.021,0.377 -0.063,0.857 -0.046,1.245 v 0 c 0.177,0.92 -0.103,1.837 -0.758,2.5 v 0 c -0.004,0.414 0.047,0.94 0.045,1.296 v 0 c -0.016,5.525 0.012,10.988 -0.705,16.479 v 0 c -0.275,2.115 -0.374,5.012 -2.554,6.09 v 0 c -0.034,0.016 -0.068,0.032 -0.101,0.048 v 0 c 0.691,0.642 0.941,1.527 1.19,2.499 v 0 c 0.189,0.735 0.21,2.304 0.169,3.096 v 0 c -0.101,1.992 -0.772,6.978 -1.634,8.641 v 0 c -0.37,0.714 -0.69,1.087 -1.147,1.684 v 0 c -0.066,0.171 -0.118,0.431 -0.153,0.595 v 0 c -0.176,0.82 -0.657,1.475 -1.361,1.869 v 0 c -0.228,0.238 -0.486,0.603 -0.67,0.84 v 0 c -0.488,0.628 -0.999,1.277 -1.623,1.774 v 0 c -0.886,0.71 -2.109,1.479 -2.814,2.369 v 0 c -0.781,0.986 -1.553,1.628 -2.617,2.277 v 0 c -0.337,0.206 -0.665,0.395 -0.96,0.662 v 0 c -0.066,0.058 -0.186,0.165 -0.235,0.24 v 0 c -0.131,0.234 -0.214,0.456 -0.37,0.698 v 0 c -0.974,1.515 -2.731,1.857 -4.369,2.185 v 0 c -1.685,0.336 -3.505,0.614 -5.297,0.614 v 0 c -2.639,0 -5.217,-0.602 -7.21,-2.503"
         transform="translate(-330.68751,-333.86821)"
         id="path140" />
    </clipPath>
  </defs>
  <sodipodi:namedview
     id="namedview1"
     pagecolor="#ffffff"
     bordercolor="#000000"
     borderopacity="0.25"
     inkscape:showpageshadow="2"
     inkscape:pageopacity="0.0"
     inkscape:pagecheckerboard="0"
     inkscape:deskcolor="#d1d1d1"
     inkscape:zoom="0.88480802"
     inkscape:cx="326.62453"
     inkscape:cy="419.86509"
     inkscape:window-width="1424"
     inkscape:window-height="944"
     inkscape:window-x="0"
     inkscape:window-y="25"
     inkscape:window-maximized="0"
     inkscape:current-layer="layer-MC0">
    <inkscape:page
       x="0"
       y="0"
       width="587.69861"
       height="712.99615"
       id="page1"
       margin="0"
       bleed="0" />
  </sodipodi:namedview>
  <g
     id="layer-MC0"
     inkscape:groupmode="layer"
     inkscape:label="Camada 1"
     transform="translate(-106.77492,-200.61518)">
    <g
       id="g218"
       style="display:inline"
       inkscape:label="brasao">
      <g
         id="g1"
         inkscape:label="garrafas"
         style="display:inline;fill:#1a1a1a">
        <path
           style="display:inline;fill:#ffffff;fill-opacity:0.98913;fill-rule:evenodd"
           d="m 508.59565,724.16078 c 0.13431,-2.41758 -0.94017,-2.95483 -0.26862,-7.9243 0.67155,-4.96948 1.74603,-11.14775 1.61172,-13.83396 -0.13431,-2.6862 -0.40293,-8.59585 -1.20879,-12.22223 -0.80586,-3.62637 -0.80586,-9.2674 -3.895,-11.41637 -3.08914,-2.14896 -5.2381,-2.28327 -6.17827,-4.70086 -0.94017,-2.41758 -1.47741,-5.2381 -1.3431,-7.11844 0.13431,-1.88034 2.41758,-3.22344 0.67155,-4.56655 -1.74603,-1.3431 -2.01466,-3.35775 -9.67034,-3.62637 -7.65568,-0.26862 -6.84982,4.96948 -6.84982,6.5812 0,1.61172 1.3431,3.895 0.40293,5.90965 -0.94017,2.01465 -6.5812,14.23688 -6.84982,9.40171 -0.26862,-4.83516 -8.32724,-5.10378 -8.32724,-5.10378 0,0 -9.13309,-0.40293 -11.01343,0.67155 -1.88035,1.07448 -5.10379,1.07448 -5.2381,2.6862 -0.13431,1.61172 -2.82052,-0.94017 -2.68621,-5.2381 0.13431,-4.29792 -0.40293,-5.64103 -5.37241,-6.5812 -4.96948,-0.94017 -9.80464,-1.88034 -12.49085,-1.3431 -2.6862,0.53724 -7.65568,1.20879 -8.86447,2.55189 -1.2088,1.34311 -3.895,2.01466 -3.35776,5.2381 0.53724,3.22345 1.07448,5.90965 0.94017,9.80465 -0.13431,3.895 -1.20879,19.87791 0.67155,22.2955 1.88035,2.41758 4.83517,4.29793 7.92431,4.29793 3.08913,0 8.73016,0.94017 11.28206,0.67155 2.55189,-0.26862 2.6862,2.14896 2.28327,3.89499 -0.40293,1.74604 -2.14896,6.98414 -0.67155,7.92431 1.47741,0.94017 3.35775,3.76068 6.04396,3.62637 2.6862,-0.13431 9.26741,0.40293 12.62516,1.07448 3.35776,0.67156 48.08306,0.80587 49.02324,-0.13431 0.94017,-0.94017 0.80586,-2.82051 0.80586,-2.82051 z"
           id="path24"
           inkscape:label="fundo_garrafa" />
        <path
           id="path133"
           d="m 0,0 c -6.099,-4.563 -11.875,0.809 -13.562,1.356 -2.806,0.912 -6.87,-0.734 -6.984,2.233 -0.118,3.067 3.644,2.013 5.676,3.158 0.958,0.54 0.493,0.456 1.563,1.046 0.553,0.305 0.965,0.417 1.414,0.905 0.736,0.798 1.582,3.737 4.642,4.598 8.457,2.38 5.855,1.312 6.28,-5.225 C -0.804,5.502 0.187,2.786 0,0 m -13.252,12.048 c -1.697,0.859 -1.498,2.39 -1.265,4.168 0.236,1.792 0.018,3.77 0.241,5.586 0.268,2.193 0.277,3.201 2.8,2.872 7.375,-0.959 7.493,1.406 7.565,-4.346 0.065,-5.158 -1.693,-3.292 -6.025,-5.877 -1.442,-0.859 -1.757,-2.16 -3.316,-2.403 m -0.045,16.043 c 1.737,1.221 7.816,1.906 8.743,-0.335 -0.774,-1.633 -2.653,-1.206 -4.498,-1.194 -1.679,0.011 -3.659,-0.079 -4.245,1.529 m 26.26,14.532 c -0.221,-2.854 -1.084,0.604 -0.464,-6.818 0.189,-2.25 1.11,-3.862 3.019,-5.139 4.481,-2.998 5.056,-5.356 5.474,-10.662 0.371,-4.711 0.1,-10.908 -0.654,-15.57 -0.456,-2.82 0.747,-4.897 -2.916,-5.04 -2.46,-0.097 -5.546,0.009 -8.077,0.016 -9.346,0.026 -5.894,0.141 -8.026,8.309 -1.281,4.906 1.253,17.741 3.195,20.385 1.31,1.784 3.501,2.496 4.195,3.851 2.459,4.804 -3.288,12.83 4.254,10.668 M 0.294,24.12 -0.774,17.574 c -1.976,-0.294 -1.287,2.54 -1.308,4.374 -0.093,7.639 1.182,9.37 -8.908,8.834 -5.025,-0.266 -4.743,-2.029 -5.381,-6.275 -0.406,-2.704 -0.595,-8.708 -0.294,-11.417 0.861,-0.899 0.012,-0.527 1.55,-1.764 1.103,-0.888 1.002,-1.027 0.77,-2.445 -2.029,-0.783 -8.753,-0.846 -9.739,-2.543 -0.73,-2.496 -0.489,-5.293 1.283,-7.169 2.053,-0.462 4.679,0.22 7.003,0.122 4.285,-0.18 1.712,-3.47 11.598,-3.366 1.57,0.015 2.039,0.267 3.328,0.444 1.129,0.155 1.958,-0.295 3.108,-0.39 4.218,-0.352 9.969,0.567 14.531,0.47 7.116,-0.151 5.481,3.062 5.938,8.695 0.19,2.325 0.841,4.156 0.874,6.473 0.035,2.479 0.012,4.959 -0.012,7.439 -0.094,10.248 -4.179,11.109 -7.527,14.438 -4.424,4.4 1.064,8.097 -2.524,10.69 -1.379,0.996 -4.851,0.65 -6.417,0.007 C 5.322,40.038 9.484,35.477 5.743,32.324 0.731,28.102 1.503,25.53 0.294,24.12"
           style="display:inline;fill:#1a1a1a;fill-opacity:1;fill-rule:evenodd;stroke:none"
           transform="matrix(1.3333333,0,0,-1.3333333,475.87373,720.82187)"
           clip-path="url(#clipPath134)"
           inkscape:label="garrafas" />
        <path
           id="path139"
           d="m 0,0 c 1.149,-2.042 1.635,-16.882 1.325,-18.698 -2.226,-1.458 -1.681,-1.463 -4.806,-1.317 -11.297,0.528 -8.291,2.833 -8.977,9.676 -0.222,2.213 -1.127,9.652 0.853,10.715 C -10.882,0.765 -0.721,0.39 0,0 m -5.729,4.451 c 1.412,-0.006 3.656,0.161 4.568,-0.903 -0.4,-1.017 -0.587,-0.92 -1.964,-1.01 -1.779,-0.117 -5.838,-0.034 -7.184,0.688 0.833,1.298 2.826,1.232 4.58,1.225 m -9.358,-1.499 c 0.107,-1.065 0.404,-1.344 0.391,-2.945 -0.032,-3.588 -0.182,-18.464 0.762,-19.849 1.584,-2.32 11.72,-3.184 14.999,-2.178 2.203,0.678 2.51,1.013 2.604,3.285 C 3.786,-15.93 3.535,2.864 2.559,4.079 1.01,6.007 -4.648,6.542 -7.029,6.49 -11.641,6.391 -12.173,5.144 -13.656,4.414 -14.434,4.031 -15.21,4.183 -15.087,2.952"
           style="display:inline;fill:#1a1a1a;fill-opacity:1;fill-rule:evenodd;stroke:none"
           transform="matrix(1.3333333,0,0,-1.3333333,440.91667,677.36213)"
           clip-path="url(#clipPath140)"
           inkscape:label="copo" />
      </g>
    </g>
  </g>
</svg>
