<?xml version="1.0" encoding="UTF-8" standalone="no"?>
<!-- Created with Inkscape (http://www.inkscape.org/) -->

<svg
   version="1.1"
   id="svg1"
   width="587.69861"
   height="712.99615"
   viewBox="0 0 587.69862 712.99618"
   sodipodi:docname="escudo_vetor_borda.svg"
   inkscape:version="1.4.2 (ebf0e940, 2025-05-08)"
   inkscape:export-filename="escudo_vetor.svg"
   inkscape:export-xdpi="96"
   inkscape:export-ydpi="96"
   inkscape:dataloss="true"
   xmlns:inkscape="http://www.inkscape.org/namespaces/inkscape"
   xmlns:sodipodi="http://sodipodi.sourceforge.net/DTD/sodipodi-0.dtd"
   xmlns="http://www.w3.org/2000/svg"
   xmlns:svg="http://www.w3.org/2000/svg">
  <defs
     id="defs1">
    <clipPath
       clipPathUnits="userSpaceOnUse"
       id="clipPath6">
      <path
         d="M 0,841.89 H 595.276 V 0 H 0 Z"
         transform="translate(-502.83502,-572.79101)"
         id="path6" />
    </clipPath>
    <clipPath
       clipPathUnits="userSpaceOnUse"
       id="clipPath8">
      <path
         d="M 0,841.89 H 595.276 V 0 H 0 Z"
         transform="translate(-98.4556,-504.96531)"
         id="path8" />
    </clipPath>
    <clipPath
       clipPathUnits="userSpaceOnUse"
       id="clipPath10">
      <path
         d="M 0,841.89 H 595.276 V 0 H 0 Z"
         transform="translate(-153.0703,-608.32812)"
         id="path10" />
    </clipPath>
    <clipPath
       clipPathUnits="userSpaceOnUse"
       id="clipPath12">
      <path
         d="M 0,841.89 H 595.276 V 0 H 0 Z"
         transform="translate(-389.12991,-603.03662)"
         id="path12" />
    </clipPath>
    <clipPath
       clipPathUnits="userSpaceOnUse"
       id="clipPath14">
      <path
         d="M 0,841.89 H 595.276 V 0 H 0 Z"
         transform="translate(-117.5928,-577.87892)"
         id="path14" />
    </clipPath>
    <clipPath
       clipPathUnits="userSpaceOnUse"
       id="clipPath18">
      <path
         d="M 0,841.89 H 595.276 V 0 H 0 Z"
         transform="translate(-467.93851,-590.56592)"
         id="path18" />
    </clipPath>
    <clipPath
       clipPathUnits="userSpaceOnUse"
       id="clipPath20">
      <path
         d="M 0,841.89 H 595.276 V 0 H 0 Z"
         transform="translate(-211.36041,-644.85741)"
         id="path20" />
    </clipPath>
    <clipPath
       clipPathUnits="userSpaceOnUse"
       id="clipPath22">
      <path
         d="M 0,841.89 H 595.276 V 0 H 0 Z"
         transform="translate(-384.51951,-634.94631)"
         id="path22" />
    </clipPath>
    <clipPath
       clipPathUnits="userSpaceOnUse"
       id="clipPath26">
      <path
         d="M 0,841.89 H 595.276 V 0 H 0 Z"
         transform="translate(-326.75981,-637.07421)"
         id="path26" />
    </clipPath>
    <clipPath
       clipPathUnits="userSpaceOnUse"
       id="clipPath28">
      <path
         d="M 0,841.89 H 595.276 V 0 H 0 Z"
         transform="translate(-243.42291,-653.22951)"
         id="path28" />
    </clipPath>
    <clipPath
       clipPathUnits="userSpaceOnUse"
       id="clipPath30">
      <path
         d="M 0,841.89 H 595.276 V 0 H 0 Z"
         transform="translate(-447.29391,-606.66702)"
         id="path30" />
    </clipPath>
    <clipPath
       clipPathUnits="userSpaceOnUse"
       id="clipPath32">
      <path
         d="M 0,841.89 H 595.276 V 0 H 0 Z"
         transform="translate(-190.19241,-639.45512)"
         id="path32" />
    </clipPath>
    <clipPath
       clipPathUnits="userSpaceOnUse"
       id="clipPath34">
      <path
         d="M 0,841.89 H 595.276 V 0 H 0 Z"
         transform="translate(-290.0581,-621.94532)"
         id="path34" />
    </clipPath>
    <clipPath
       clipPathUnits="userSpaceOnUse"
       id="clipPath36">
      <path
         d="M 0,841.89 H 595.276 V 0 H 0 Z"
         transform="translate(-292.53121,-682.11081)"
         id="path36" />
    </clipPath>
  </defs>
  <sodipodi:namedview
     id="namedview1"
     pagecolor="#ffffff"
     bordercolor="#000000"
     borderopacity="0.25"
     inkscape:showpageshadow="2"
     inkscape:pageopacity="0.0"
     inkscape:pagecheckerboard="0"
     inkscape:deskcolor="#d1d1d1"
     inkscape:zoom="0.7672114"
     inkscape:cx="406.66758"
     inkscape:cy="485.52459"
     inkscape:window-width="1296"
     inkscape:window-height="944"
     inkscape:window-x="0"
     inkscape:window-y="25"
     inkscape:window-maximized="0"
     inkscape:current-layer="layer-MC0">
    <inkscape:page
       x="0"
       y="0"
       width="587.69861"
       height="712.99615"
       id="page1"
       margin="0"
       bleed="0" />
  </sodipodi:namedview>
  <g
     id="layer-MC0"
     inkscape:groupmode="layer"
     inkscape:label="Camada 1"
     transform="translate(-106.77492,-200.61518)">
    <g
       id="g219"
       style="fill:#000000"
       transform="translate(12,-12)">
      <path
         id="path5"
         d="m 0,0 c -4.39,-0.551 -4.445,-1.268 -7.887,-3.476 -3.109,-1.995 -3.354,-3.21 -4.851,-6.368 -2.724,-5.743 -0.47,-3.455 -0.331,-8.396 0.098,-3.548 -0.034,-7.734 -0.066,-11.343 -0.022,-2.484 -0.168,-7.938 -1.066,-10.116 -0.732,-1.772 -3.428,-5.339 -5.14,-6.19 -5.143,-2.557 -12.826,1.787 -14.745,6.921 -0.964,2.579 -1.062,7.681 -0.266,10.313 0.535,1.764 2.656,7.176 2.801,8.612 0.176,1.723 -1.397,2.416 -2.875,1.951 -1.341,-0.422 -7.969,-8.663 -8.188,-9.039 -1.832,-3.139 0.795,-4.892 2.366,-7.361 1.371,-2.154 2.957,-4.989 4.332,-6.946 3.961,-5.633 4.949,-8.484 12.21,-10.369 3.028,-0.786 6.154,-1.507 8.991,-0.346 5.036,2.061 3.491,-1.294 6.883,4.462 5.169,8.774 3.303,8.828 3.631,18.453 0.273,8.058 -2.706,11.516 1.935,19.171 3.477,5.731 11.084,5.127 14.045,-1.107 1.946,-4.094 1.797,-5.152 1.588,-9.7 -0.152,-3.326 -2.994,-6.956 -2.198,-8.895 1.805,-4.393 11.846,5.558 12.189,8.355 0.326,2.651 -2.555,5.163 -4.09,7.086 -1.999,2.504 -2.348,5.311 -3.919,7.388 C 12.287,-2.895 5.002,0.628 0,0"
         style="fill:#000000;fill-opacity:1;fill-rule:evenodd;stroke:none"
         transform="matrix(1.3315504,0.06892836,0.06892836,-1.3315504,652.77808,379.0489)"
         clip-path="url(#clipPath6)" />
      <path
         id="path7"
         d="m 0,0 c 1.678,-1.4 4.418,-2.011 6.663,-2.237 1.102,-0.112 5.588,-2.034 7.699,-1.201 0.944,0.373 4.685,8.302 5.254,9.139 l 5.596,9.53 c 0.784,1.606 0.61,7.633 0.223,9.438 -0.255,1.186 -0.992,2.268 -1.331,3.432 -0.44,1.51 -0.048,2.545 -1.228,3.589 -3.845,3.403 -3.155,4.369 -5.248,4.697 -6.535,1.024 -11.094,1.025 -16.682,-2.643 -2.138,-1.404 -4.436,-1.892 -6.72,-2.995 -2.029,-0.979 -3.879,-2.969 -5.843,-4.141 -4.055,-2.42 -11.921,-3.739 -15.195,0.566 -2.485,3.269 -2.584,2.993 -1.577,7.132 1.464,6.007 5.552,7.251 10.53,9.55 3.162,1.461 4.557,-0.361 8.143,1.81 0.103,3.684 -3.209,4.219 -5.965,5.49 -10.373,4.785 -9.607,-2.336 -12.916,-7.537 -2.157,-3.391 -3.089,-2.619 -4.499,-7.077 -1.675,-5.29 -0.423,-14.002 4.286,-17.484 5.924,-4.378 7.832,-3.864 13.556,-3.854 1.955,0.003 2.426,0.645 3.755,1.958 2.263,2.235 4.48,2.275 7.263,4.005 3.903,2.424 12.641,7.094 16.968,6.246 2.88,-0.565 6.406,-1.186 7.514,-4.256 1.493,-4.138 1.987,-4.944 0.72,-9.461 C 20.177,10.882 18.475,8.541 15.856,7.194 11.936,5.177 12.193,4.425 7.278,4.111 5.314,3.985 4.581,3.49 2.101,3.417 -0.272,3.348 -0.39,2.078 0,0"
         style="fill:#000000;fill-opacity:1;fill-rule:evenodd;stroke:none"
         transform="matrix(1.3315504,0.06892836,0.06892836,-1.3315504,137.65138,441.48903)"
         clip-path="url(#clipPath8)" />
      <path
         id="path9"
         d="m 0,0 c 4.979,1.049 8.15,0.088 12.146,-2.742 9.709,-6.877 16.501,-21.616 3.487,-27.163 -4.046,-1.725 -7.076,2.573 -9.334,5.178 -2.154,2.486 -4.909,5.121 -7.218,7.616 -1.32,1.426 -2.57,2.118 -3.876,3.891 -0.902,1.225 -2.259,3.626 -2.011,5.125 C -6.267,-4.836 -3.338,-0.704 0,0 m -27.21,10.439 c -3.907,-0.949 -5.656,-7.849 -4.184,-9.317 1.086,-1.082 4.398,-0.735 8.934,-5.912 4.647,-5.304 9.26,-10.464 14.461,-15.214 1.508,-1.378 1.948,-2.546 3.482,-3.927 1.571,-1.414 1.085,-2.708 2.912,-4.517 5.734,-5.68 9.853,-10.956 18.84,-4.318 3.789,2.798 5.643,2.811 7.59,7.596 1.62,3.98 3.386,7.206 2.908,11.694 C 26.213,0.795 5.997,17.102 -4.861,3.833 -5.828,2.652 -6.663,0.628 -7.537,-0.887 c -1.046,-1.814 -0.988,-4.143 -4.5,-2.919 -0.774,0.27 -6.186,6.466 -7.335,7.596 -2.21,2.173 -4.524,7.454 -7.838,6.649"
         style="fill:#000000;fill-opacity:1;fill-rule:evenodd;stroke:none"
         transform="matrix(1.3315504,0.06892836,0.06892836,-1.3315504,205.49824,301.62076)"
         clip-path="url(#clipPath10)" />
      <path
         id="path11"
         d="m 0,0 c 2.588,1.069 1.35,2.815 2.104,5.214 1.261,4.007 5.576,11.634 7.542,15.323 2.059,3.863 3.557,5.563 7.367,7.796 3.897,2.285 11.713,-3.147 7.61,-11.809 C 24.027,15.267 23.611,15.199 23.049,14.262 22.001,12.514 21.146,10.343 19.025,6.969 17.956,5.268 16.92,4.378 16.016,2.295 c -2.352,-5.411 -7.65,-5.406 -5.727,-8.888 0.869,-1.575 3.216,-2.149 4.714,-3.032 1.774,-1.048 3.238,-2.547 5.532,-2.016 1.712,2.694 0.277,4.979 1.937,7.759 1.216,2.038 2.421,3.952 3.58,6.045 2.582,4.664 7.896,16.402 7.457,21.562 -0.291,3.431 -1.035,4.107 -3.563,6.105 -2.574,2.034 -4.281,1.893 -7.331,2.286 -4.348,0.559 -3.011,2.548 -4.865,4.885 -1.611,2.034 -5.158,2.069 -7.463,1.535 C 5.224,37.363 8.042,35.553 7.111,32.188 6.654,30.536 4.692,28.372 3.859,25.649 3.245,23.645 1.616,21.244 0.515,19.39 -1.714,15.638 -3.917,10.36 -7.829,8.306 -11.561,6.345 -8.081,4.57 -6.254,3.318 -5.166,2.574 -1.008,0.141 0,0"
         style="fill:#000000;fill-opacity:1;fill-rule:evenodd;stroke:none"
         transform="matrix(1.3306547,0.08447295,0.08447295,-1.3306547,523.26242,320.73776)"
         clip-path="url(#clipPath12)" />
      <path
         id="path13"
         d="m 0,0 c 1.892,1.054 11.374,-0.087 13.451,-1.144 8.282,-4.215 4.896,-3.622 8.383,-6.789 3.736,-3.392 4.801,-4.535 5.359,-9.839 0.475,-4.503 -2.386,-7.111 -6.523,-8.341 -5.969,-1.776 -8.863,0.564 -12.389,1.437 -1.476,0.365 -3.26,2.036 -4.624,3.043 -0.772,0.57 -1.178,1.213 -2.065,1.818 -0.812,0.554 -1.453,0.732 -2.216,1.342 -1.953,1.561 -5.297,6.223 -5.491,9.772 C -6.364,-4.132 -3.661,-2.04 0,0 M 4.969,6.8 C -3.687,3.567 -8.142,0.13 -10.035,-9.246 c -1.172,-5.8 1.215,-10.923 5.167,-15.074 2.915,-3.063 2.207,-2.335 5.647,-4.657 3.399,-2.294 4.64,-1.206 7.426,-2.872 2.069,-1.239 6.628,-1.158 9,-0.757 6.818,1.15 7.753,4.734 12.242,8.422 3,2.465 3.04,8.59 2.223,11.925 -0.326,1.336 -0.825,2.508 -1.162,3.949 -0.58,2.488 -6.335,11.181 -8.65,11.945 C 18.394,4.78 18.687,4.437 14.091,6.202 11.299,7.274 7.842,7.874 4.969,6.8"
         style="fill:#000000;fill-opacity:1;fill-rule:evenodd;stroke:none"
         transform="matrix(1.2953718,0.31589482,0.31589482,-1.2953718,153.70488,333.50967)"
         clip-path="url(#clipPath14)" />
      <path
         id="path17"
         d="m 0,0 c -1.399,-1.367 1.595,-6.428 -0.884,-9.442 -2.704,-3.289 -5.087,-0.485 -6.937,1.5 -1.625,1.742 -4.818,4.192 -4.545,6.702 0.364,3.354 3.909,2.562 6.358,4.889 0.102,6.117 -16.933,-0.851 -19.294,-3.529 -4.68,-5.313 -8.897,-12.212 -7.964,-19.653 0.138,-1.092 1.233,-3.924 1.712,-5.035 1.106,-2.564 0.874,-2.19 2.93,-3.856 8.131,-6.586 5.783,-5.503 14.971,-5.555 1.519,-0.008 4.668,-0.164 5.113,1.911 0.51,2.377 -3.268,1.386 -5.019,1.691 -3.8,0.661 -9.379,6.21 -10.86,9.71 -0.89,2.104 -0.435,3.792 -0.192,5.97 0.345,3.104 0.58,2.57 1.902,5.118 1.599,3.082 3.504,6.882 7.71,4.761 4.413,-2.226 3.851,-4.12 7.135,-6.715 2.996,-2.368 1.163,-2.14 4.828,-5.488 1.298,-1.187 3.911,-8.021 9.117,0.58 1.062,1.755 1.256,3.152 1.684,5.146 0.693,3.234 0.857,2.6 -0.601,5.472 C 6.114,-3.754 6.22,-3.431 4.545,-1.711 3.422,-0.558 1.342,1.487 0,0"
         style="fill:#000000;fill-opacity:1;fill-rule:evenodd;stroke:none"
         transform="matrix(1.3315504,0.06892836,0.06892836,-1.3315504,631.53682,340.97536)"
         clip-path="url(#clipPath18)" />
      <path
         id="path19"
         d="m 0,0 c -2.525,0.419 -3.371,-2.041 -3.75,-4.231 -0.42,-2.432 -1.348,-4.874 -1.12,-7.407 0.13,-1.437 0.51,-1.653 0.586,-3.193 0.173,-3.481 0.992,-6.423 3.276,-9.416 6.813,-8.927 17.71,-14.066 27.172,-6.09 3.903,3.29 4.427,3.7 6.34,10.098 0.333,1.112 0.854,2.273 0.703,3.428 -0.122,0.925 -0.994,2.078 -1.958,1.66 -2.402,-1.043 0.602,-4.372 -7.686,-8.727 -3.95,-2.076 -8.537,-3.309 -12.494,-0.575 -2.823,1.95 -7.206,4.962 -7.87,8.672 -0.896,5.009 5.211,6.494 8.733,7.744 2.976,1.055 2.257,1.583 6.108,2.076 1.74,0.223 1.461,0.722 2.798,1.281 1.25,0.523 1.818,0.242 3.142,1.043 4.136,2.5 -1.034,8.096 -3.459,9.935 C 18.376,7.922 17.685,8.806 14.856,8.725 11.311,8.623 11.087,8.966 7.911,7.239 6.573,6.512 3.613,4.477 6.52,3.366 9.19,2.345 9.928,3.473 12.987,1.382 14.682,0.223 15.424,-2.935 13.678,-4.345 13.305,-4.646 4.032,-9.64 1.22,-7.147 -0.608,-5.526 1.701,-2.474 0,0"
         style="fill:#000000;fill-opacity:1;fill-rule:evenodd;stroke:none"
         transform="matrix(1.3315504,0.06892836,0.06892836,-1.3315504,285.63235,256.99799)"
         clip-path="url(#clipPath20)" />
      <path
         id="path21"
         d="m 0,0 c 2.537,4.529 1.94,11.877 -1.736,15.183 -5.097,4.582 -10.149,4.016 -9.979,1.868 0.104,-1.301 6.521,-5.903 3.104,-10.06 -2.023,-2.461 -5.514,-0.202 -7.791,0.55 -2.549,0.842 -5.907,1.18 -5.878,4.634 0.02,2.549 3.99,3.36 3.741,6.208 -2.521,1.628 -5.378,-0.853 -7.293,-2.568 -3.208,-2.873 -2.976,-1.917 -5.244,-6.064 -0.694,-1.268 -1.877,-2.131 -2.34,-3.141 -1.838,-4.016 -1.131,-7.444 -1.344,-9.917 -0.23,-2.671 -0.781,-1.988 0.208,-4.942 3.418,-10.203 9.06,-14.618 19.818,-13.808 3.059,0.231 10.507,4.785 10.968,5.778 0.72,1.549 -0.011,3.089 -2.003,2.355 -3.428,-1.264 -1.519,-2.837 -8.985,-1.74 -2.227,0.328 -6.449,1.787 -8.195,3.168 -0.753,0.597 -2.141,2.178 -2.502,3.052 l -1.391,4.366 c -0.526,2.021 -0.398,8.405 1.02,9.913 3.397,3.613 9.411,-0.381 13.245,-1.168 2.284,-0.47 2.056,-0.801 3.945,-1.813 C -6.87,0.909 -6.12,1.299 -4.57,0.421 -3.063,-0.432 -1.692,-0.594 0,0"
         style="fill:#000000;fill-opacity:1;fill-rule:evenodd;stroke:none"
         transform="matrix(1.3315504,0.06892836,0.06892836,-1.3315504,513.51928,278.13069)"
         clip-path="url(#clipPath22)" />
      <path
         id="path25"
         d="m 0,0 c -3.131,4.047 -0.204,2.413 -3.497,9.35 -4.056,8.54 1.597,13.917 -2.865,15.556 -2.483,0.911 -8.829,2.634 -10.833,0.492 -1.839,-1.965 -0.183,-2.937 0.698,-4.554 1.822,-3.344 3.016,-4.932 4.191,-8.735 1.017,-3.288 2.092,-6.731 3.109,-10.107 0.944,-3.143 1.623,-7.206 2.768,-10.152 1.317,-3.387 0.067,-9.153 4.275,-9.038 1.974,0.054 2.442,1.452 3.65,2.906 1.387,1.669 0.546,2.582 1.707,4.75 1.476,2.756 3.508,5.327 4.78,8.417 1.093,2.651 8.081,15.062 9.526,16.642 0.855,0.935 2.83,2.328 2.811,3.504 -0.022,1.455 -1.527,3.069 -3.119,3.253 C 8.482,23.293 13.586,19.915 8.752,11.088 8.001,9.717 6.908,8.316 6.562,6.835 5.998,4.434 3.217,-0.116 0,0"
         style="fill:#000000;fill-opacity:1;fill-rule:evenodd;stroke:none"
         transform="matrix(1.3321882,-0.05524633,-0.05524633,-1.3321882,443.39326,273.56595)"
         clip-path="url(#clipPath26)" />
      <path
         id="path27"
         d="m 0,0 c 8.096,-6.868 5.517,-4.578 12.166,-13.869 2.568,-3.589 5.244,-8.764 8.944,-13.929 0.796,-1.111 0.574,-1.301 1.082,-2.472 0.453,-1.041 1.539,-3.26 2.591,-3.834 2.362,-1.288 5.757,2.05 4.946,6.91 -0.427,2.562 0.326,3.103 0.919,5.385 0.834,3.207 1.706,7.794 2.149,11.177 0.36,2.742 2.447,12.577 4.278,15.376 4.257,6.508 -9.762,5.669 -8.021,-0.388 0.655,-2.279 0.751,-3.421 0.472,-5.906 -0.208,-1.854 -0.906,-3.911 -1.218,-5.575 -0.516,-2.756 0.278,-2.276 -0.93,-5.448 -0.528,-1.385 -0.939,-3.926 -2.712,-4.198 -2.722,-0.418 -3.035,3.709 -5.933,6.918 -3.425,3.793 -3.277,3.554 -4.71,8.559 C 13.288,1.274 14.382,5.919 7.691,5.357 6.454,5.253 4.027,4.499 2.489,4.187 0.091,3.701 -0.195,2.244 0,0"
         style="fill:#000000;fill-opacity:1;fill-rule:evenodd;stroke:none"
         transform="matrix(1.3227104,0.16797277,0.16797277,-1.3227104,324.37343,244.21513)"
         clip-path="url(#clipPath28)" />
      <path
         id="path29"
         d="m 0,0 c 0.685,3.743 -3.078,4.691 -1.285,8.104 0.852,1.625 4.361,5.062 1.94,6.943 -2.626,2.04 -5.415,-0.929 -7.737,-1.803 -3.15,-1.186 -7.513,0.913 -7.836,-2.818 -0.403,-4.658 1.84,-3.324 -2.288,-7.718 -1.948,-2.074 -3.426,-3.091 -4.882,-5.731 -1.2,-2.179 -3.056,-4.039 -4.446,-6.215 -1.609,-2.516 -3.667,-3.145 -4.688,-6.302 -0.73,-2.261 -2.281,-6.638 -1.112,-8.83 0.847,-1.587 4.041,-4.315 5.67,-4.959 2.717,-1.074 8.186,-1.49 5.087,2.827 -0.711,0.991 -1.728,1.787 -1.933,3.117 -0.875,5.679 1.318,5.482 5.201,10.725 1.547,2.089 2.844,4.032 4.466,6.173 1.619,2.138 2.84,3.912 4.763,5.887 C -6.302,2.254 -2.628,-0.851 0,0"
         style="fill:#000000;fill-opacity:1;fill-rule:evenodd;stroke:none"
         transform="matrix(1.3315504,0.06892836,0.06892836,-1.3315504,603.15732,318.11294)"
         clip-path="url(#clipPath30)" />
      <path
         id="path31"
         d="m 0,0 c -3.208,-1.151 -3.889,-2.77 -5.458,-5.326 -2.487,-4.05 -5.442,-0.917 -7.767,-3.243 -8.921,-8.929 -0.778,-8.85 1.73,-12.153 1.662,-2.19 11.994,-18.137 12.314,-20.636 0.629,-4.913 0.456,-5.416 5.713,-3.093 1.272,0.562 2.633,0.918 3.726,1.771 1.087,0.848 2.766,1.405 3.411,2.076 2.873,2.99 -3.306,3.656 -4.834,4.708 -3.154,2.17 -4.581,6.742 -6.525,9.947 -0.766,1.262 -1.751,1.771 -2.588,2.89 -0.948,1.265 -3.25,5.397 -4.053,6.927 -1.533,2.926 0.005,6.048 2.642,7.632 2.343,1.408 5.607,0.559 7.054,3.951 C 6.476,-1.945 2.906,1.042 0,0"
         style="fill:#000000;fill-opacity:1;fill-rule:evenodd;stroke:none"
         transform="matrix(1.3315504,0.06892836,0.06892836,-1.3315504,257.07372,262.73234)"
         clip-path="url(#clipPath32)" />
      <path
         id="path33"
         d="m 0,0 c 2.713,-1.888 2.986,-1.056 6.102,-1.391 10.874,-1.171 6.171,3.448 5.406,5.5 -1.431,3.846 -1.009,6.202 -1.218,10.099 -0.123,2.289 -0.635,0.989 -0.676,7.097 -0.012,1.661 -0.432,2.03 -0.459,3.533 -0.047,2.515 0.862,3.877 0.322,6.962 -0.436,2.493 1.111,11.534 -5.608,8.19 C 2.365,39.242 0.284,38.526 -0.664,37.162 -2.425,34.627 -2.644,34.441 -0.731,32.142 1.797,29.103 2.516,24.154 2.143,20.251 1.562,14.172 2.254,15.511 2.08,13.231 1.99,12.05 1.634,11.321 1.559,10.015 1.484,8.72 1.636,7.398 1.631,6.109 1.619,2.707 -0.39,3.111 0,0"
         style="fill:#000000;fill-opacity:1;fill-rule:evenodd;stroke:none"
         transform="matrix(1.3315504,0.06892836,0.06892836,-1.3315504,388.84302,292.93111)"
         clip-path="url(#clipPath34)" />
      <path
         id="path35"
         d="M 0,0 C -1.956,-0.933 -3.116,-2.57 -2.625,-4.931 -2.284,-6.57 0.727,-7.94 2.34,-7.814 7.273,-7.43 4.818,2.298 0,0"
         style="fill:#000000;fill-opacity:1;fill-rule:evenodd;stroke:none"
         transform="matrix(1.3315504,0.06892836,0.06892836,-1.3315504,396.28319,212.98818)"
         clip-path="url(#clipPath36)" />
    </g>
  </g>
</svg>
