<?xml version="1.0" encoding="UTF-8" standalone="no"?>
<!-- Created with Inkscape (http://www.inkscape.org/) -->

<svg
   version="1.1"
   id="svg1"
   width="587.69861"
   height="712.99615"
   viewBox="0 0 587.69862 712.99618"
   sodipodi:docname="escudo_vetor_borda.svg"
   inkscape:version="1.4.2 (ebf0e940, 2025-05-08)"
   inkscape:export-filename="../tarja_alta.svg"
   inkscape:export-xdpi="96"
   inkscape:export-ydpi="96"
   inkscape:dataloss="true"
   xmlns:inkscape="http://www.inkscape.org/namespaces/inkscape"
   xmlns:sodipodi="http://sodipodi.sourceforge.net/DTD/sodipodi-0.dtd"
   xmlns="http://www.w3.org/2000/svg"
   xmlns:svg="http://www.w3.org/2000/svg">
  <defs
     id="defs1" />
  <sodipodi:namedview
     id="namedview1"
     pagecolor="#ffffff"
     bordercolor="#000000"
     borderopacity="0.25"
     inkscape:showpageshadow="2"
     inkscape:pageopacity="0.0"
     inkscape:pagecheckerboard="0"
     inkscape:deskcolor="#d1d1d1"
     inkscape:zoom="0.7672114"
     inkscape:cx="406.66758"
     inkscape:cy="485.52459"
     inkscape:window-width="1296"
     inkscape:window-height="944"
     inkscape:window-x="0"
     inkscape:window-y="25"
     inkscape:window-maximized="0"
     inkscape:current-layer="layer-MC0">
    <inkscape:page
       x="0"
       y="0"
       width="587.69861"
       height="712.99615"
       id="page1"
       margin="0"
       bleed="0" />
  </sodipodi:namedview>
  <g
     id="layer-MC0"
     inkscape:groupmode="layer"
     inkscape:label="Camada 1"
     transform="translate(-106.77492,-200.61518)">
    <g
       id="g2"
       transform="matrix(3.7794727,-0.02037147,0.02037147,3.7794727,4.9672242,338.24545)"
       style="fill:#000000">
      <path
         id="path213-1"
         d="m 71.36631,125.11615 1.072847,0.52736 0.03461,0.0938 0.06596,-0.0435 1.626597,0.80022 0.0536,0.15568 1.828401,0.89683 0.155663,-0.0536 0.863574,0.42529 0.0536,0.15566 0.654309,0.32322 0.0536,0.15567 0.430084,0.21027 0.04679,0.1713 0.228294,0.11362 0.04952,0.15499 0.534726,0.2613 0.0536,0.15567 0.328849,0.16399 0.0502,0.15091 0.329529,0.15992 0.04203,0.1747 0.332932,0.16466 0.05021,0.15091 0.104634,0.0511 0.122828,0.31814 0.205204,0.10134 0.04272,0.17062 0.127742,0.0632 0.32295,0.95101 -0.05102,0.10464 0.165544,0.48877 -0.05035,0.10055 0.168939,0.49352 -0.164663,0.33294 0.05428,0.15159 -0.159922,0.32953 0.05428,0.15159 -0.101372,0.2052 0.0868,0.33308 -0.10071,0.20111 -0.06664,0.0476 0.0156,0.0571 -0.319824,0.65907 -0.154986,0.0495 -0.05102,0.10465 -0.159078,0.074 -0.101382,0.2052 -0.154986,0.0495 -0.2613,0.53473 -0.167917,0.0767 -0.05035,0.10057 -0.175374,0.0461 -0.05035,0.10057 -0.1584,0.0699 -0.05102,0.10465 -0.155679,0.0537 -0.04968,0.0965 -0.494204,0.17302 -0.100553,-0.0504 -0.155679,0.0536 -0.05035,0.10056 -0.83069,0.28021 -0.102084,0.20926 -0.151585,0.0542 0.169623,0.48944 -0.05102,0.10463 0.04272,0.17062 0.104634,0.0511 0.122829,0.31815 0.100552,0.0504 0.04953,0.15499 -0.04628,0.10123 0.116022,0.33378 0.104634,0.0511 0.322267,0.95509 -0.06262,0.12365 0.127588,0.31475 -0.108867,0.2249 0.0536,0.15568 -0.05035,0.10055 0.04545,0.15431 -0.06328,0.12773 0.07806,0.15977 -0.05102,0.10464 0.0536,0.15566 -0.05035,0.10056 0.09632,0.32629 -0.164662,0.33293 0.0699,0.1584 -0.522599,1.06945 -0.171297,0.0468 -0.113642,0.2283 -0.154986,0.0495 -0.164664,0.33294 -0.146155,0.0468 -0.05102,0.10464 -0.167233,0.0726 -0.05102,0.10463 -0.178774,0.0414 -0.108868,0.22492 -0.147507,0.0549 -0.05035,0.10056 -0.154986,0.0495 -0.05102,0.10465 -0.167232,0.0726 -0.05102,0.10464 -0.640354,0.21983 -0.05102,0.10464 -0.104631,-0.0511 -0.337169,0.11126 -0.10463,-0.0511 -0.331046,0.0997 -0.100553,-0.0504 -0.314068,0.1235 -0.124341,-0.0585 -0.306582,0.10381 -0.328851,-0.16399 -0.155679,0.0537 -0.100553,-0.0504 -0.154308,0.0455 -0.228974,-0.10958 -0.159764,0.0781 -0.228295,-0.11362 -0.155678,0.0537 -0.104632,-0.0511 -0.146831,0.0509 -0.430092,-0.21026 -0.174696,0.0421 -0.844554,-0.41372 -0.185574,0.057 -1.398302,-0.68659 -0.0122,-0.0775 -0.09244,0.0264 -0.639362,-0.31234 -0.233156,0.0658 -0.0957,-0.22978 -1.727155,-0.85057 -0.03932,-0.16586 -0.166555,0.0686 -2.164719,-1.06628 -0.03456,-0.16925 -0.228973,-0.10958 -0.0536,-0.15567 -0.100553,-0.0504 -0.05836,-0.15228 -0.228296,-0.11362 -0.04952,-0.15498 -0.100553,-0.0504 0.112949,-0.22422 0.151585,-0.0542 0.101383,-0.2052 0.159077,-0.074 0.152424,-0.30983 0.167232,-0.0726 0.151743,-0.30576 0.182865,-0.0658 0.04967,-0.0965 -0.07937,-0.25219 0.24404,-0.0807 -0.0923,-0.22502 0.244041,-0.0807 0.636232,-1.29774 0.155678,-0.0537 0.210264,-0.43009 -0.0536,-0.15567 0.640309,-1.29706 0.163154,-0.0733 0.736938,-1.49886 0.155662,-0.0536 0.05103,-0.10464 -0.04272,-0.17061 0.363369,-0.744 0.155662,-0.0536 0.268106,-0.55036 -0.04952,-0.15498 0.265376,-0.53405 -0.0536,-0.15567 0.210946,-0.43416 0.154986,-0.0495 -0.04135,-0.17877 0.10071,-0.20111 0.155678,-0.0537 0.05853,-0.12433 -0.05428,-0.1516 0.374934,-0.76302 -0.07263,-0.16723 0.210264,-0.43009 -0.0536,-0.15567 0.163989,-0.32885 0.155662,-0.0536 0.425287,-0.86358 -0.05428,-0.1516 0.101382,-0.20519 -0.04204,-0.17469 0.265377,-0.53405 -0.08481,-0.24471 0.150909,-0.0502 -0.0067,-0.085 0.101382,-0.2052 -0.116022,-0.33377 0.05103,-0.10464 -0.395574,-1.11824 0.05784,-0.12027 -0.04952,-0.15498 0.159911,-0.32953 0.154986,-0.0495 0.05103,-0.10464 0.33309,-0.11194 0.205878,0.0973 0.178775,-0.0414 0.735842,0.362 z m 3.080947,3.25664 -0.154309,0.0455 -0.124345,-0.0585 -0.31407,0.12351 -0.05102,0.10464 -0.155662,0.0535 -0.05102,0.10464 -0.185574,0.057 -0.05102,0.10465 -0.303185,0.10856 -0.05784,0.12026 -0.155678,0.0536 -0.102084,0.20927 0.0081,0.0768 -0.07071,0.0469 -0.525999,1.06469 -0.245404,0.0889 0.08481,0.24472 -0.315724,0.63461 0.0536,0.15567 -0.847176,1.73191 0.08884,0.32085 -0.05035,0.10056 0.22254,0.64919 0.124345,0.0585 0.05292,0.15974 0.101227,0.0463 0.05428,0.15159 0.534046,0.26538 0.174697,-0.0421 0.100553,0.0504 0.05428,0.15159 0.328849,0.16399 0.154986,-0.0495 1.293676,0.63553 0.155662,-0.0536 0.100554,0.0504 0.182173,-0.0617 0.205876,0.0973 0.154986,-0.0495 0.224215,0.11294 0.155661,-0.0536 0.100554,0.0504 0.326286,-0.0963 0.104634,0.0511 0.80759,-0.29245 0.05035,-0.10055 0.155679,-0.0537 0.11364,-0.22829 0.174697,-0.0421 0.101373,-0.20519 0.159077,-0.074 0.05102,-0.10465 0.154986,-0.0495 0.159923,-0.32953 0.155678,-0.0537 0.163991,-0.32884 -0.0536,-0.15568 0.310984,-0.6312 -0.04135,-0.17876 0.101384,-0.20521 -0.04952,-0.15498 0.05035,-0.10056 -0.06582,-0.18286 0.151733,-0.30575 -0.04203,-0.1747 0.05102,-0.10464 -0.04952,-0.15499 -0.100553,-0.0504 -0.227299,-0.6458 0.05102,-0.10464 -0.120264,-0.0578 -0.04272,-0.17062 -0.100553,-0.0504 -0.0536,-0.15567 -0.100553,-0.0504 -0.126223,-0.32291 -0.205877,-0.0973 -0.115341,-0.33785 -0.639366,-0.31232 -0.07331,-0.16316 -0.739924,-0.36267 -0.154986,0.0495 -0.06922,-0.16247 z m -3.446835,7.5257 -0.162478,0.0692 -0.101227,-0.0463 -0.334441,0.0949 -0.100554,-0.0504 -0.643748,0.21506 -0.05102,0.10464 -0.152277,0.0584 -0.163992,0.32885 -0.150909,0.0502 -0.272858,0.55375 -0.174696,0.0421 -0.101383,0.20519 0.06038,0.19034 -0.151733,0.30576 -0.174004,0.0379 -0.323899,0.65839 0.07262,0.16724 -0.585182,1.19312 0.0536,0.15566 -0.101382,0.2052 0.03864,0.16993 -0.362678,0.73993 -0.159762,0.0781 -0.26537,0.53405 0.0502,0.15091 -0.100711,0.20112 0.04135,0.17877 -0.05035,0.10055 0.218464,0.64851 0.124342,0.0585 0.05292,0.15975 0.101247,0.0462 0.05428,0.15159 0.224219,0.11294 0.04611,0.17537 0.329533,0.15992 0.0502,0.15091 0.433488,0.21502 0.07343,-0.038 0.06991,0.15839 0.236549,-0.061 0.635285,0.31165 0.162479,-0.0692 0.10463,0.0511 0.17062,-0.0427 0.209278,0.10203 0.151583,-0.0542 0.224896,0.1089 0.155678,-0.0537 0.433487,0.21502 0.163154,-0.0733 0.104632,0.0511 0.170619,-0.0427 0.209277,0.10202 0.155679,-0.0537 0.123665,0.0626 0.959181,-0.34672 0.101384,-0.20521 0.154986,-0.0495 0.05102,-0.10463 0.18219,-0.0618 0.101384,-0.20521 0.155662,-0.0536 0.159221,-0.32546 0.147524,-0.055 0.27763,-0.55714 0.155678,-0.0537 0.04629,-0.10123 0.174697,-0.042 0.476321,-0.96822 -0.06174,-0.18218 0.05102,-0.10465 -0.0536,-0.15566 0.05035,-0.10056 -0.03795,-0.17401 0.05035,-0.10056 -0.126225,-0.3229 0.163992,-0.32885 -0.05428,-0.15159 0.05102,-0.10465 -0.04679,-0.1713 0.05102,-0.10463 -0.100553,-0.0504 -0.127586,-0.31476 0.06262,-0.12365 -0.09973,-0.30589 0.05102,-0.10465 -0.12366,-0.0626 -0.153995,-0.48264 -0.120264,-0.0578 -0.05428,-0.1516 -0.100552,-0.0504 -0.16894,-0.49352 -0.104635,-0.0511 -0.0536,-0.15568 -0.224898,-0.1089 -0.04545,-0.1543 -0.863575,-0.42529 -0.04679,-0.17129 z m -5.289434,9.97135 0.103955,0.0551 -0.05784,0.12027 -0.103955,-0.0551 z m 0,0"
         style="display:inline;fill:#000000;fill-opacity:1;fill-rule:nonzero;stroke:none;stroke-width:0.352778"
         aria-label="B" />
      <path
         id="path214-2"
         d="m 89.658318,138.10999 1.501449,0.41262 0.180265,0.28629 0.112756,0.0334 0.07346,0.16209 0.10911,0.0288 0.107707,0.15342 -0.0329,0.10865 0.07621,0.13743 -0.06853,0.24196 0.08397,0.14246 -0.06853,0.24195 0.08351,0.14656 -0.09779,0.35516 -0.141084,0.0716 -0.03333,0.11276 -0.276243,0.16474 -0.136951,-0.0402 -0.287206,0.18848 -0.217755,-0.0617 -0.165737,0.0689 -0.572916,-0.15949 -0.08489,-0.13424 -0.351049,-0.0973 -0.0794,-0.14612 -0.113217,-0.0292 -0.09355,-0.16848 -0.68613,-0.18872 -0.05522,-0.0644 -0.05387,0.0356 -0.463816,-0.13063 -0.148856,0.10406 -0.133294,-0.0357 -0.142004,0.0799 -0.10911,-0.0288 -0.590381,0.33359 -0.06215,0.22186 -0.290858,0.18391 -0.698646,2.53864 -0.162082,0.0734 -0.02925,0.11322 0.09355,0.16848 -0.09093,0.33097 0.07346,0.16208 -0.09093,0.33097 0.07711,0.16666 -0.126557,0.46427 -0.145648,0.0752 -0.796883,2.89791 0.08351,0.14656 -0.0329,0.10865 0.08031,0.1379 -0.03566,0.13329 0.08031,0.13789 -0.03333,0.11277 0.104055,0.14886 -0.03562,0.13329 0.244147,0.42236 0.133298,0.0357 0.149215,0.30363 -0.06259,0.22597 0.08489,0.13424 -0.09779,0.35517 -0.428751,0.26423 -0.133297,-0.0357 -0.142003,0.0799 -0.46427,-0.12655 -0.07993,-0.14198 -0.577022,-0.15994 -0.138349,0.0844 -0.463815,-0.13063 -0.104055,-0.14886 -0.573378,-0.15531 -0.08351,-0.14656 -0.815321,-0.22391 -0.07392,-0.15797 -0.35516,-0.0978 -0.159721,-0.284 0.257252,-0.92808 0.109109,0.0288 0.137442,-0.0762 0.03335,-0.11276 0.306834,-0.17798 0.03335,-0.11275 0.14155,-0.0758 0.126568,-0.46428 -0.07711,-0.16665 0.06215,-0.22186 0.141549,-0.0758 0.355033,-1.28324 0.08218,-0.0283 -0.0534,-0.0808 0.159931,-0.57702 0.08858,-0.0484 -0.05339,-0.0808 0.222067,-0.79888 0.142004,-0.0799 0.09779,-0.35516 -0.08443,-0.13835 0.06854,-0.24195 0.07807,-0.0287 -0.04883,-0.0845 0.314827,-1.14629 -0.07255,-0.17031 0.188712,-0.68613 0.08356,-0.0406 -0.05522,-0.0644 0.09779,-0.35516 -0.07575,-0.14154 0.12611,-0.46016 -0.104056,-0.14885 0.06443,-0.24241 -0.155155,-0.28766 0.06854,-0.24195 -0.184373,-0.28674 0.03976,-0.13285 -0.08443,-0.13834 0.188713,-0.68613 0.90589,-0.51476 0.217755,0.0617 0.142003,-0.0799 0.129189,0.0352 0.145657,-0.0753 0.21821,0.0576 0.162548,-0.0776 0.334617,0.0955 0.144747,-0.10451 0.242404,0.0644 0.219619,-0.1045 0.135543,0.20229 0.221861,0.0621 0.07346,0.16209 0.355159,0.0978 0.260125,0.42829 0.112756,0.0334 0.07301,0.16619 0.35516,0.0978 0.145204,-0.10862 0.463816,0.13063 0.590838,-0.3377 0.246517,0.0649 0.141538,-0.0757 0.109111,0.0288 z m 0,0"
         style="display:inline;fill:#000000;fill-opacity:1;fill-rule:nonzero;stroke:none;stroke-width:0.352778"
         aria-label="r" />
      <path
         id="path215-0"
         d="m 98.64954,138.71907 1.78594,0.0951 0.3514,0.3886 0.11576,0.008 0.10335,0.11989 0.14056,0.008 0.21497,0.23978 0.22738,0.0124 0.13229,0.1447 0.11162,0.004 -0.004,0.11575 0.10749,0.12402 0.11575,0.008 0.23978,0.26458 -0.008,0.11576 0.21497,0.23978 -0.004,0.13642 0.23565,0.23978 -0.0165,0.36794 0.10749,0.11989 -0.0124,0.23151 0.10336,0.14056 -0.0165,0.34313 0.12816,0.14883 -0.0331,0.59531 0.11162,0.12402 -0.008,0.11162 0.11162,0.11989 -0.0372,0.61599 0.10749,0.12402 -0.0124,0.22738 0.10748,0.14056 -0.0248,0.48369 -0.12402,0.11162 -0.0124,0.22738 -0.11576,0.10748 -0.0289,0.47956 0.10335,0.14883 -0.0165,0.34313 0.17777,0.18603 -0.19844,0.17364 -0.0372,0.71106 -0.11989,0.1323 -0.0331,0.59531 0.10748,0.12402 -0.0331,0.59531 0.10749,0.14056 -0.0413,0.70694 0.23978,0.24391 -0.004,0.13643 0.2191,0.23978 -0.0165,0.25218 0.13229,0.12402 -0.008,0.11576 0.21498,0.26458 0.11575,0.008 0.45889,0.50436 -0.0331,0.59531 -0.24391,0.21498 -0.11576,-0.004 -0.38447,0.34727 -0.36793,-0.0207 -0.12403,0.10748 -0.47955,-0.0248 -0.10749,-0.11989 -0.59118,-0.0331 -0.13643,-0.12403 -0.22737,-0.0124 -0.10749,-0.14469 -0.13643,-0.004 -0.32246,-0.3638 -0.14056,-0.008 -0.32246,-0.38034 -0.3638,-0.0207 -0.11162,-0.12402 -0.48369,-0.0248 -0.11162,0.10748 -0.62012,-0.0331 -0.3638,0.34726 -0.11576,-0.008 -0.26458,0.21497 -0.11576,-0.008 -0.12402,0.11162 -0.25218,-0.0124 -0.239778,0.23978 -0.136426,-0.008 -0.124024,0.10749 -0.23151,-0.0124 -0.14056,0.10335 -0.223242,-0.0124 -0.124024,0.13642 -0.847493,-0.0455 -0.107513,-0.14883 -0.735872,-0.0413 -0.107487,-0.11576 -0.115755,-0.008 -0.107487,-0.11989 -0.115756,-0.008 0.0041,-0.11576 -0.128158,-0.14056 -0.115755,-0.008 -0.21084,-0.24392 0.0083,-0.11162 -0.128157,-0.14883 -0.115756,-0.004 -0.67386,-0.74828 0.0124,-0.22737 -0.128157,-0.14056 0.0041,-0.11576 -0.107487,-0.12402 0.0124,-0.25218 0.124023,-0.10749 0.0124,-0.22737 0.14056,-0.1323 0.07441,-1.30638 0.119889,-0.10335 0.01654,-0.25218 0.115755,-0.11162 0.0083,-0.11576 0.268717,-0.23564 0.0041,-0.11576 0.243912,-0.23978 0.0041,-0.11162 0.888835,-0.78134 0.0083,-0.1323 0.115755,0.004 0.384473,-0.32247 0.111622,0.008 0.124024,-0.13643 0.367936,0.0207 0.124024,-0.10749 0.111622,0.004 0.144694,-0.10335 0.111622,0.004 0.124023,-0.10748 0.252182,0.0124 0.124023,-0.12816 0.115756,0.004 0.115755,-0.10749 0.479557,0.0248 0.111621,0.12402 0.136427,0.008 0.10748,0.14056 -0.0289,0.48369 -0.264581,0.21497 -0.115756,-0.008 -0.504362,0.45062 -0.111622,-0.008 -0.508496,0.45889 -0.0083,0.11576 -0.11989,0.10335 -0.01653,0.25218 -0.264583,0.21911 -0.0124,0.25218 -0.115756,0.11162 -0.06201,1.07074 0.107487,0.11989 -0.01653,0.25218 0.136425,0.12402 -0.0083,0.11576 0.214974,0.26458 -0.0041,0.11162 0.347266,0.38861 0.115755,0.004 0.21084,0.24391 0.252181,0.0165 0.107487,0.14056 1.215421,0.0661 0.12403,-0.12815 0.11162,0.004 0.24391,-0.21911 0.13643,0.008 0.3638,-0.34726 0.004,-0.11163 0.14882,-0.11162 0.004,-0.13642 0.11576,-0.10749 0.004,-0.11576 0.12402,-0.11162 0.0207,-0.3638 0.11989,-0.10335 0.0207,-0.36794 0.1447,-0.10749 0.0124,-0.25218 0.12402,-0.10748 0.0579,-1.07901 -0.11162,-0.11989 0.008,-0.11575 -0.12815,-0.1447 0.0248,-0.47542 -0.11163,-0.12402 0.008,-0.11576 -0.21084,-0.26458 0.008,-0.11576 -0.13642,-0.11575 -0.11162,-0.008 0.008,-0.11576 -0.10749,-0.14056 0.0124,-0.23151 -0.17777,-0.1943 0.1943,-0.1695 0.0165,-0.23151 0.50023,-0.45476 0.004,-0.11575 0.12402,-0.13229 0.0289,-0.47956 0.11989,-0.10749 0.008,-0.11162 -0.11162,-0.12402 0.0331,-0.59531 -0.10748,-0.1447 0.004,-0.11162 -0.0992,-0.12402 0.0248,-0.4837 -0.1323,-0.11575 0.004,-0.14056 -0.32247,-0.3638 -0.13642,-0.008 -0.10749,-0.11575 -0.11575,-0.008 -0.21498,-0.26458 -1.09967,-0.0579 -0.12403,0.10748 -0.115747,-0.004 -0.11989,0.12816 -0.248046,-0.0124 -0.752409,0.6656 -0.0124,0.23151 -0.119889,0.13229 -0.01654,0.34313 -0.148828,0.13229 -0.02067,0.34313 -0.359668,0.3514 -0.0124,0.22738 -0.144694,0.12816 -0.0083,0.11575 -0.119889,0.10335 -0.115755,-0.004 -0.11989,0.10749 -0.140559,-0.008 -0.119889,0.13229 -0.347267,-0.0207 -0.128157,-0.14056 -0.223242,-0.0124 -0.107487,-0.12402 -0.136426,-0.008 -0.111621,-0.11576 0.0083,-0.11576 -0.214974,-0.26458 0.103352,-1.9265 0.119889,-0.10748 0.0124,-0.23151 0.124024,-0.10336 0.0041,-0.13642 0.624251,-0.56224 0.136426,0.004 0.243913,-0.21911 0.115755,0.008 0.384473,-0.34313 0.115755,0.004 0.124024,-0.10748 0.252181,0.0124 0.119889,-0.12816 0.111622,0.004 0.148828,-0.10749 1.897555,0.10336 z m 0,0"
         style="display:inline;fill:#000000;fill-opacity:1;fill-rule:nonzero;stroke:none;stroke-width:0.352778"
         aria-label="a" />
      <path
         id="path216-4"
         d="m 109.22534,138.22839 0.80925,-0.176 0.1542,0.0885 1.3914,-0.29616 0.11033,-0.14391 0.58585,-0.12465 0.13365,0.0906 0.14492,-0.21381 0.21301,0.13669 0.6957,-0.14803 0.29771,0.19475 0.11396,-0.0238 0.2755,0.18034 0.13413,-0.0299 0.41037,0.28327 0.0279,0.11356 0.13365,0.0906 0.0254,0.13043 0.1579,0.084 0.30231,1.41157 -0.11033,0.14391 0.0476,0.22792 -0.17047,0.29114 -0.11397,0.0238 -0.0864,0.13322 -0.35794,0.0771 -0.57239,-0.36687 -0.0238,-0.11397 -0.13364,-0.0906 -0.0299,-0.13413 -1.13862,-0.71358 -0.11397,0.0238 -0.16035,-0.1087 -0.11397,0.0238 -0.13734,-0.086 -0.11397,0.0238 -0.1579,-0.084 -0.2197,0.0468 -0.13775,-0.0902 -0.36205,0.0775 -0.13527,-0.10704 -0.13453,0.0258 -0.0885,0.15421 -0.10984,0.0234 -0.0898,0.14188 -0.35834,0.073 -0.0898,0.14187 -0.10985,0.0234 -0.19064,0.29729 -0.11396,0.0238 -0.20132,0.27343 0.0238,0.11396 -0.25613,0.43259 0.12434,0.58174 0.27302,0.1972 0.0472,0.22382 0.30223,0.19846 0.0238,0.11395 0.13694,0.082 0.0238,0.11396 0.13734,0.086 0.10574,-0.023 0.169,0.11199 0.10985,-0.0234 0.0234,0.10985 0.13693,0.082 0.24437,-0.0492 0.41489,0.28698 0.24849,-0.0496 0.13364,0.0906 0.11396,-0.0238 0.13694,0.082 0.13453,-0.0258 0.14391,0.11033 0.10574,-0.023 0.13734,0.086 0.0238,0.11397 0.15791,0.084 0.22791,-0.0476 0.14392,0.11033 0.13001,-0.0295 0.27057,0.17253 0.22792,-0.0476 0.15379,0.0844 0.11397,-0.0238 0.43956,0.28451 0.10986,-0.0234 0.27056,0.17252 0.24809,-0.0537 0.14432,0.11445 0.10984,-0.0234 0.42889,0.26065 0.0295,0.13001 0.13775,0.0902 0.0238,0.11397 0.43052,0.27711 0.0238,0.11395 0.13775,0.0902 0.11397,-0.0238 0.0537,0.24809 0.15791,0.084 0.023,0.10573 0.13775,0.0902 0.1267,0.60642 0.13363,0.0906 0.15221,0.6953 0.13324,0.0864 0.073,0.35834 -0.082,0.13694 0.0496,0.24849 -0.086,0.13733 0.023,0.10574 -0.0836,0.16202 0.0472,0.22381 -0.28492,0.43545 0.0472,0.22382 -0.0795,0.16161 0.0234,0.10985 -0.28737,0.41077 -0.11397,0.0238 -0.36687,0.57239 -0.11396,0.0238 -0.10417,0.16407 -0.22381,0.0472 -0.086,0.13734 -0.24809,0.0537 -0.0902,0.13774 -0.24397,0.0533 -0.0906,0.13364 -0.11396,0.0238 -0.0798,0.15752 -2.46929,0.52792 -0.1398,-0.11074 -0.13864,0.0262 -0.12912,-0.0868 -0.11396,0.0238 -0.14041,0.21752 -0.22163,-0.14 -0.58174,0.12424 -0.13776,-0.0902 -0.58174,0.12424 -0.1579,-0.084 -0.10986,0.0234 -0.27713,-0.1968 -0.25221,0.0541 -0.13322,-0.0864 -0.0238,-0.11396 -0.1402,-0.11486 -0.0705,-0.33366 -0.15749,-0.0799 -0.0775,-0.36205 -0.13734,-0.086 -0.15426,-0.71586 0.0902,-0.13775 -0.0775,-0.36204 0.11032,-0.14392 -0.0726,-0.35422 0.082,-0.13693 -0.0238,-0.11397 0.17459,-0.29154 0.4719,-0.10087 0.15995,0.10458 0.11396,-0.0238 0.27098,0.17663 0.0279,0.11355 0.15379,0.0844 0.0492,0.24438 0.2792,0.17582 0.0496,0.24849 1.28294,0.82803 0.10574,-0.023 0.30223,0.19845 1.63536,-0.34948 0.0836,-0.16202 0.36204,-0.0776 0.1968,-0.27713 0.11396,-0.0238 0.26066,-0.42889 -0.0472,-0.22381 0.0997,-0.16777 -0.023,-0.10574 -0.1538,-0.0844 -0.20182,-0.94378 -0.41078,-0.28738 -0.0279,-0.11355 -1.13736,-0.74279 -0.023,-0.10573 -0.13776,-0.0902 -0.13452,0.0258 -0.28125,-0.19639 -0.24438,0.0492 -0.27139,-0.18074 -0.22752,0.0516 -0.15338,-0.0803 -0.11397,0.0238 -0.43957,-0.28452 -0.33326,0.0746 -0.15832,-0.0881 -0.11395,0.0238 -0.98688,-0.64972 -0.0238,-0.11396 -0.72659,-0.4554 -0.0299,-0.13413 -0.13363,-0.0906 -0.0238,-0.11397 -0.13734,-0.086 -0.0533,-0.24396 -0.13364,-0.0906 -0.13824,0.0303 -0.0238,-0.11396 -0.14391,-0.11033 -0.0238,-0.11397 -0.26646,-0.17292 -0.37984,-1.77361 0.0864,-0.13323 -0.10127,-0.476 0.0864,-0.13324 -0.0234,-0.10984 0.19846,-0.30223 -0.0238,-0.11396 0.36687,-0.57239 -0.0234,-0.10985 0.0877,-0.16244 0.10985,-0.0234 0.19762,-0.26891 0.11355,-0.0279 0.086,-0.13735 0.11396,-0.0238 0.084,-0.15792 0.13824,-0.0303 0.082,-0.13693 0.22792,-0.0476 z m 0,0"
         style="display:inline;fill:#000000;fill-opacity:1;fill-rule:nonzero;stroke:none;stroke-width:0.352778"
         aria-label="s" />
      <path
         id="path217-4"
         d="m 118.17036,129.76819 0.56818,-0.17544 0.30789,0.14924 0.1104,-0.0333 0.0383,0.13089 0.45143,0.2222 0.0422,0.12659 0.13974,0.0814 0.10481,0.35168 0.14783,0.077 0.138,0.45795 -0.0771,0.1437 0.0333,0.1104 -0.0732,0.1394 0.0425,0.13486 -0.10171,0.14881 0.0333,0.11041 -0.10643,0.029 -0.0769,0.14784 -0.24129,0.0715 -0.0721,0.1642 -0.21666,0.0665 -0.1731,-0.0884 -0.32706,0.0997 -0.1437,-0.0771 -0.24129,0.0715 -0.46051,-0.24253 -0.1104,0.0333 -0.0331,-0.10627 -0.28328,-0.15435 -0.138,-0.45795 0.0688,-0.14337 -0.10481,-0.35169 0.0769,-0.14783 -0.0422,-0.1266 0.32376,-0.60438 0.1104,-0.0333 0.0976,-0.14864 0.1104,-0.0333 z m 2.45919,6.03473 0.56834,-0.17132 0.16816,0.0678 0.10627,-0.0332 0.14354,0.073 0.1104,-0.0333 0.0333,0.1104 0.17311,0.0884 0.0333,0.1104 0.1437,0.0771 0.6272,2.06053 0.15708,0.10139 0.27519,0.89524 -0.0763,0.16436 0.24221,0.79311 -0.0722,0.1642 0.14229,0.46192 0.14371,0.0771 0.5939,1.95013 0.14784,0.0769 0.0756,0.24113 0.13957,0.0773 0.41847,1.38194 0.22317,0.0988 -0.12341,0.22828 0.17559,0.57232 0.15278,0.0974 0.23792,0.78914 0.17327,0.0924 0.0333,0.1104 0.14371,0.0771 0.0715,0.24129 0.1437,0.0771 0.0333,0.1104 0.14783,0.077 0.029,0.10643 0.31681,0.16544 0.0333,0.1104 0.13957,0.0773 0.0756,0.24113 -0.0773,0.13957 0.0375,0.11023 -0.1104,0.0333 -0.0923,0.1774 -0.22079,0.0666 -0.0773,0.13956 -0.24129,0.0716 -0.12308,0.23654 -0.14881,-0.10171 -0.026,0.0755 -0.69908,0.21369 -0.14354,-0.073 -0.35168,0.10481 -0.14354,-0.0729 -1.14066,0.34691 -0.16913,-0.0926 -0.32706,0.0997 -0.45558,-0.22203 -0.1048,-0.35169 0.0732,-0.13527 -0.0425,-0.13486 0.0812,-0.14387 -0.0375,-0.11023 0.10171,-0.14881 -0.0333,-0.1104 0.2222,-0.45143 -0.21385,-0.70321 0.0514,-0.06 -0.0847,-0.0505 -0.42242,-1.37765 0.0974,-0.15278 -0.59819,-1.9541 0.0814,-0.13973 -0.2846,-0.92383 0.0771,-0.14371 -0.10491,-0.35168 -0.14354,-0.073 -0.1756,-0.5723 -0.14864,-0.0976 -0.0665,-0.21665 -0.16403,-0.068 -0.24716,-0.8136 -0.14783,-0.0769 -0.0333,-0.1104 -0.14865,-0.0976 -0.0333,-0.1104 -0.74363,-0.39274 -0.0333,-0.1104 -0.31285,-0.16974 -0.10901,-0.35152 0.0773,-0.13956 -0.0334,-0.11454 0.0976,-0.14864 -0.0333,-0.11041 0.14099,-0.30757 -0.029,-0.10642 0.16957,-0.31697 0.10627,-0.0331 0.15418,-0.2874 0.13073,-0.0424 0.0771,-0.14371 0.2208,-0.0666 0.0885,-0.16898 0.11041,-0.0333 0.0771,-0.1437 0.11039,-0.0333 0.0731,-0.1394 0.24112,-0.0756 z m 0,0"
         style="display:inline;fill:#000000;fill-opacity:1;fill-rule:nonzero;stroke:none;stroke-width:0.352778"
         aria-label="i" />
      <path
         id="path218-5"
         d="m 124.90764,128.45468 0.22777,-0.10251 0.15275,0.0584 1.42859,-0.62308 0.0626,-0.15272 1.4493,-0.63126 0.15276,0.0543 0.0993,-0.0409 0.15687,0.0585 0.23189,-0.0983 0.15682,0.075 0.21118,-0.0901 0.0451,0.10764 0.17759,0.0461 0.10351,-0.0451 0.0983,0.23188 -0.0584,0.14861 0.0451,0.10351 -0.12838,0.0575 -0.1671,0.47895 -0.12422,0.0533 -0.0584,0.14862 0.0451,0.10351 -0.0544,0.17757 -0.0993,0.0409 -0.0625,0.15273 0.0451,0.10765 -0.075,0.15682 0.0451,0.10765 -0.10879,0.32618 0.18853,0.43892 0.15277,0.0544 0.0983,0.23187 -0.0542,0.1569 0.0452,0.10352 -0.0626,0.1486 0.29516,0.67496 0.15275,0.0584 0.34023,0.77849 -0.0626,0.14859 0.15275,0.0584 0.23775,0.54658 0.14862,0.0584 0.14757,0.33543 -0.0584,0.15275 0.5329,1.22154 0.15277,0.0543 0.4304,0.98966 -0.0502,0.17346 0.0451,0.10765 0.14865,0.0502 0.19677,0.44722 -0.0584,0.15276 0.19265,0.43893 0.14862,0.0585 0.1025,0.23188 -0.0584,0.15276 0.14863,0.0542 0.29516,0.67496 -0.0585,0.1569 0.34025,0.77435 0.2353,0.0918 -0.10004,0.22288 0.0574,0.12422 -0.0626,0.15274 0.23775,0.54658 0.22286,0.10416 -0.0626,0.1486 0.095,0.0376 0.33205,0.75777 0.23532,0.0918 -0.0917,0.23943 0.14756,0.33956 0.14862,0.0584 0.0492,0.10348 0.16094,0.0793 0.18446,0.42236 0.33024,0.12938 0.0492,0.10347 0.3054,0.14173 0.0451,0.10351 0.32619,0.11281 0.21119,-0.0943 0.15681,0.079 0.67497,-0.29516 0.14859,0.0626 1.42859,-0.62307 0.15273,0.0626 0.5673,-0.25007 0.0584,-0.15276 0.20704,-0.0901 0.15687,0.0626 0.77434,-0.34027 0.15276,0.0543 0.12424,-0.0574 0.0625,-0.14447 0.21118,-0.0943 0.0749,-0.16095 0.20703,-0.0901 0.0626,-0.15686 0.23187,-0.0983 0.0502,-0.16933 0.33956,-0.14756 0.0584,-0.15276 0.10347,-0.0492 0.13758,-0.30541 0.10765,-0.0492 0.0502,-0.17345 0.10352,-0.0452 0.25038,-0.63159 -0.0492,-0.10765 0.14171,-0.30951 -0.0451,-0.10766 0.10454,-0.31794 -0.0451,-0.10764 0.0626,-0.15274 -0.0574,-0.12423 0.14171,-0.30953 -0.0451,-0.10766 0.25039,-0.63572 0.77435,-0.34026 0.29723,0.12092 0.10765,-0.0451 0.15685,0.0626 0.29105,0.67083 -0.0625,0.15272 0.14758,0.33543 -0.0626,0.14859 0.0451,0.10351 0.24769,0.096 -0.10006,0.24355 0.0492,0.10347 -0.0585,0.14861 0.0533,0.12836 -0.0585,0.14861 0.0492,0.10347 -0.0833,0.16505 0.14756,0.33955 -0.0585,0.14449 0.0533,0.12834 -0.11692,0.30549 0.0451,0.10351 -0.1335,0.33023 0.0492,0.10764 -0.0994,0.0451 -0.0625,0.14446 -0.12838,0.0575 -0.0584,0.15275 -0.2112,0.0943 -0.0709,0.17752 -0.65423,0.28282 -0.0542,0.1569 -0.67082,0.29103 -0.15686,-0.0626 -1.32094,0.578 -0.16097,-0.0749 -0.10351,0.0451 -0.0543,0.16929 -0.12425,0.0574 -0.0584,0.15274 -0.43894,0.19267 -0.096,0.2353 -0.16096,-0.0749 -0.0334,0.0907 -0.21119,0.0902 -0.14861,-0.0584 -1.22154,0.53289 -0.0626,0.14859 -0.33129,0.14759 -0.15275,-0.0584 -0.65013,0.28698 -0.0792,0.15676 -0.3147,0.13526 -0.17345,-0.0462 -0.43894,0.19268 -0.15686,-0.0626 -0.88201,0.38532 -0.16095,-0.075 -0.10355,0.0409 -0.0502,0.17346 -0.33954,0.14756 -0.15681,-0.0791 -0.54659,0.23774 -0.16931,-0.0543 -0.10764,0.0492 -0.0584,0.15274 -0.23188,0.10249 -0.0502,0.16932 -0.65012,0.28283 -0.0791,0.16508 -1.1967,0.52059 -0.15273,-0.0626 -0.33955,0.14758 -0.1568,-0.0792 -0.12424,0.0574 -0.15272,-0.0626 -0.0943,-0.20705 0.0543,-0.1693 -0.0451,-0.10766 0.12423,-0.0574 0.0584,-0.14861 -0.0492,-0.10764 0.21118,-0.0901 0.0833,-0.16093 0.3147,-0.13526 0.31722,-0.81325 -0.0451,-0.10764 0.0584,-0.15275 -0.0983,-0.23188 0.0584,-0.14861 -0.0492,-0.10347 0.11285,-0.32204 -0.56981,-1.30437 0.12532,-0.3344 -0.14759,-0.33541 -0.2271,-0.0753 0.0917,-0.23945 -0.14447,-0.0625 -0.38533,-0.88201 0.042,-0.16934 -0.0901,-0.21118 0.0626,-0.1486 -0.19266,-0.44307 -0.15275,-0.0584 -0.10251,-0.22777 0.0626,-0.15272 -0.14756,-0.33954 -0.15689,-0.0585 -0.29102,-0.67081 -0.14447,-0.0625 -0.28697,-0.65014 0.0543,-0.15276 -0.19266,-0.43894 0.0543,-0.16928 -0.4304,-0.98966 0.0458,-0.0702 -0.16093,-0.0793 0.0834,-0.21469 -0.19266,-0.44306 -0.16508,-0.075 -0.5206,-1.1967 -0.15272,-0.0626 -0.14759,-0.33541 -0.14446,-0.0585 -0.38534,-0.88201 -0.18577,-0.071 -0.18448,-0.42236 0.0751,-0.18165 -0.13939,-0.31471 -0.18166,-0.0668 -0.0943,-0.21118 -0.14861,-0.0626 -0.0532,-0.1242 -0.15273,-0.0626 -0.0451,-0.0994 -0.3137,-0.13757 -0.0451,-0.10765 -0.47066,-0.17124 -0.10765,0.0451 -0.17751,-0.0709 -0.0451,-0.10352 -0.79261,-0.30887 -0.14343,-0.3354 0.0584,-0.14862 -0.0451,-0.10765 0.12836,-0.0575 0.0502,-0.16931 0.44307,-0.19265 0.0502,-0.15279 0.23188,-0.0983 0.15686,0.0586 0.0544,-0.15276 0.10764,-0.0451 z m 0,0"
         style="display:inline;fill:#000000;fill-opacity:1;fill-rule:nonzero;stroke:none;stroke-width:0.352778"
         aria-label="L" />
    </g>
  </g>
</svg>
